<?xml version="1.0" encoding="utf-8"?>
<!-- Generator: Adobe Illustrator 24.0.0, SVG Export Plug-In . SVG Version: 6.00 Build 0)  -->
<svg version="1.1" id="Layer_1" xmlns="http://www.w3.org/2000/svg" xmlns:xlink="http://www.w3.org/1999/xlink" x="0px" y="0px"
	 viewBox="0 0 226.8 226.8" style="enable-background:new 0 0 226.8 226.8;" xml:space="preserve">
<style type="text/css">
	.st0{fill:#191B32;}
</style>
<g>
	<g>
		<path class="st0" d="M204.1,121.4c3,37.2,3,44.6,20.8,52v1.5H161v-1.5c14.9-5.9,17.8-10.4,17.8-28.2c0-5.9,0-11.9,0-19.3
			l-5.9-101.1L109,174.9H100l-58-150.1h-1.5l-5.9,96.6c0,7.4,0,13.4,0,19.3c0,19.3,4.5,28.2,19.3,32.7v1.5H2v-1.5
			c17.8-5.9,19.3-17.8,22.3-52l5.9-74.3c0-5.9,1.5-11.9,1.5-16.3c0-14.9-3-22.3-16.3-26.7V2.5h49l53.5,136.7L177.3,2.5h44.6V4
			c-19.3,5.9-22.3,11.9-22.3,28.2c0,4.5,0,8.9,0,13.4L204.1,121.4z"/>
	</g>
</g>
</svg>
