{"asset":{"version":"2.0","generator":"babylon.js glTF exporter for 3ds max 2015 v1.2.16","copyright":"2017 (c) BabylonJS"},"extensionsUsed":["KHR_lights"],"scene":0,"scenes":[{"nodes":[0,1],"extensions":{"KHR_lights":{"light":0}}}],"nodes":[{"mesh":0,"translation":[2.77757645E-05,144.068665,6.17732859],"rotation":[0.3454599,-0.616974533,-0.345459849,0.6169744],"scale":[0.99999994,0.99999994,1.0],"name":"button"},{"mesh":1,"translation":[0.0,0.0,-3.81469727E-06],"rotation":[0.0,0.0,0.0,1.0],"scale":[1.0,1.0,1.0],"name":"base"}],"meshes":[{"primitives":[{"attributes":{"POSITION":1,"TANGENT":2,"NORMAL":3,"TEXCOORD_0":4},"indices":0,"mode":4,"material":0}],"name":"button"},{"primitives":[{"attributes":{"POSITION":6,"TANGENT":7,"NORMAL":8,"TEXCOORD_0":9,"TEXCOORD_1":10},"indices":5,"mode":4,"material":0}],"name":"base"}],"accessors":[{"bufferView":0,"componentType":5123,"count":12000,"type":"SCALAR","name":"accessorIndices"},{"bufferView":1,"componentType":5126,"count":12000,"max":[33.1031342,0.8115616,0.395453334],"min":[-0.5430374,-13.3226624,-0.395426154],"type":"VEC3","name":"accessorPositions"},{"bufferView":2,"componentType":5126,"count":12000,"type":"VEC4","name":"accessorTangents"},{"bufferView":1,"byteOffset":144000,"componentType":5126,"count":12000,"type":"VEC3","name":"accessorNormals"},{"bufferView":3,"componentType":5126,"count":12000,"type":"VEC2","name":"accessorUVs"},{"bufferView":0,"byteOffset":24000,"componentType":5123,"count":29046,"type":"SCALAR","name":"accessorIndices"},{"bufferView":1,"byteOffset":288000,"componentType":5126,"count":29046,"max":[20.8246117,154.646347,12.348752],"min":[-20.8607788,105.284286,-6.86675549],"type":"VEC3","name":"accessorPositions"},{"bufferView":2,"byteOffset":192000,"componentType":5126,"count":29046,"type":"VEC4","name":"accessorTangents"},{"bufferView":1,"byteOffset":636552,"componentType":5126,"count":29046,"type":"VEC3","name":"accessorNormals"},{"bufferView":3,"byteOffset":96000,"componentType":5126,"count":29046,"type":"VEC2","name":"accessorUVs"},{"bufferView":3,"byteOffset":328368,"componentType":5126,"count":29046,"type":"VEC2","name":"accessorUV2s"}],"bufferViews":[{"buffer":0,"byteLength":82092,"name":"bufferViewScalar"},{"buffer":0,"byteOffset":82092,"byteLength":985104,"byteStride":12,"name":"bufferViewFloatVec3"},{"buffer":0,"byteOffset":1067196,"byteLength":656736,"byteStride":16,"name":"bufferViewFloatVec4"},{"buffer":0,"byteOffset":1723932,"byteLength":560736,"byteStride":8,"name":"bufferViewFloatVec2"}],"buffers":[{"uri":"frt10.bin","byteLength":2284668}],"materials":[{"pbrMetallicRoughness":{"baseColorFactor":[0.6125001,0.6125001,0.6125001,1.0],"metallicFactor":0.0,"roughnessFactor":0.9},"emissiveFactor":[0.0,0.0,0.0],"alphaMode":"OPAQUE","name":"materisl"}],"extensions":{"KHR_lights":{"lights":[{"color":[1.0,1.0,1.0],"intensity":1.0,"type":"ambient"}]}}}