{"asset":{"version":"2.0","generator":"babylon.js glTF exporter for 3ds max 2015 v1.2.16","copyright":"2017 (c) BabylonJS"},"extensionsUsed":["KHR_lights"],"scene":0,"scenes":[{"nodes":[0,1],"extensions":{"KHR_lights":{"light":0}}}],"nodes":[{"mesh":0,"translation":[0.0,0.0,-3.81469727E-06],"rotation":[0.0,0.0,0.0,1.0],"scale":[1.0,1.0,1.0],"name":"base"},{"mesh":1,"translation":[2.77757645E-05,144.068665,6.17732859],"rotation":[0.3454599,-0.616974533,-0.345459849,0.6169744],"scale":[0.99999994,0.99999994,1.0],"name":" button"}],"meshes":[{"primitives":[{"attributes":{"POSITION":1,"TANGENT":2,"NORMAL":3,"TEXCOORD_0":4,"TEXCOORD_1":5},"indices":0,"mode":4,"material":0}],"name":"base"},{"primitives":[{"attributes":{"POSITION":7,"TANGENT":8,"NORMAL":9,"TEXCOORD_0":10},"indices":6,"mode":4,"material":0}],"name":" button"}],"accessors":[{"bufferView":0,"componentType":5123,"count":31662,"type":"SCALAR","name":"accessorIndices"},{"bufferView":1,"componentType":5126,"count":31662,"max":[20.8246117,154.646347,12.348752],"min":[-20.8607788,105.284286,-6.86675549],"type":"VEC3","name":"accessorPositions"},{"bufferView":2,"componentType":5126,"count":31662,"type":"VEC4","name":"accessorTangents"},{"bufferView":1,"byteOffset":379944,"componentType":5126,"count":31662,"type":"VEC3","name":"accessorNormals"},{"bufferView":3,"componentType":5126,"count":31662,"type":"VEC2","name":"accessorUVs"},{"bufferView":3,"byteOffset":253296,"componentType":5126,"count":31662,"type":"VEC2","name":"accessorUV2s"},{"bufferView":0,"byteOffset":63324,"componentType":5123,"count":10740,"type":"SCALAR","name":"accessorIndices"},{"bufferView":1,"byteOffset":759888,"componentType":5126,"count":10740,"max":[33.07187,0.7910919,0.395453334],"min":[-0.5456848,-13.3843231,-0.395426154],"type":"VEC3","name":"accessorPositions"},{"bufferView":2,"byteOffset":506592,"componentType":5126,"count":10740,"type":"VEC4","name":"accessorTangents"},{"bufferView":1,"byteOffset":888768,"componentType":5126,"count":10740,"type":"VEC3","name":"accessorNormals"},{"bufferView":3,"byteOffset":506592,"componentType":5126,"count":10740,"type":"VEC2","name":"accessorUVs"}],"bufferViews":[{"buffer":0,"byteLength":84804,"name":"bufferViewScalar"},{"buffer":0,"byteOffset":84804,"byteLength":1017648,"byteStride":12,"name":"bufferViewFloatVec3"},{"buffer":0,"byteOffset":1102452,"byteLength":678432,"byteStride":16,"name":"bufferViewFloatVec4"},{"buffer":0,"byteOffset":1780884,"byteLength":592512,"byteStride":8,"name":"bufferViewFloatVec2"}],"buffers":[{"uri":"frt11.bin","byteLength":2373396}],"materials":[{"pbrMetallicRoughness":{"baseColorFactor":[0.6125001,0.6125001,0.6125001,1.0],"metallicFactor":0.0,"roughnessFactor":0.9},"emissiveFactor":[0.0,0.0,0.0],"alphaMode":"OPAQUE","name":"materisl"}],"extensions":{"KHR_lights":{"lights":[{"color":[1.0,1.0,1.0],"intensity":1.0,"type":"ambient"}]}}}