{"asset":{"version":"2.0","generator":"babylon.js glTF exporter for 3ds max 2015 v1.2.16","copyright":"2017 (c) BabylonJS"},"extensionsUsed":["KHR_lights"],"scene":0,"scenes":[{"nodes":[0,1],"extensions":{"KHR_lights":{"light":0}}}],"nodes":[{"mesh":0,"translation":[0.0,0.0,-3.81469727E-06],"rotation":[0.0,0.0,0.0,1.0],"scale":[1.0,1.0,1.0],"name":"base"},{"mesh":1,"translation":[-0.03554841,109.430557,12.161602],"rotation":[-0.7253108,0.6812542,-0.056285467,-0.0815415457],"scale":[1.0,1.0,1.00000012],"name":" button"}],"meshes":[{"primitives":[{"attributes":{"POSITION":1,"TANGENT":2,"NORMAL":3,"TEXCOORD_0":4,"TEXCOORD_1":5},"indices":0,"mode":4,"material":0}],"name":"base"},{"primitives":[{"attributes":{"POSITION":7,"TANGENT":8,"NORMAL":9,"TEXCOORD_0":10},"indices":6,"mode":4,"material":0}],"name":" button"}],"accessors":[{"bufferView":0,"componentType":5123,"count":17658,"type":"SCALAR","name":"accessorIndices"},{"bufferView":1,"componentType":5126,"count":17658,"max":[20.8246117,154.646347,12.348752],"min":[-20.8607788,105.284286,-6.86675549],"type":"VEC3","name":"accessorPositions"},{"bufferView":2,"componentType":5126,"count":17658,"type":"VEC4","name":"accessorTangents"},{"bufferView":1,"byteOffset":211896,"componentType":5126,"count":17658,"type":"VEC3","name":"accessorNormals"},{"bufferView":3,"componentType":5126,"count":17658,"type":"VEC2","name":"accessorUVs"},{"bufferView":3,"byteOffset":141264,"componentType":5126,"count":17658,"type":"VEC2","name":"accessorUV2s"},{"bufferView":0,"byteOffset":35316,"componentType":5123,"count":18696,"type":"SCALAR","name":"accessorIndices"},{"bufferView":1,"byteOffset":423792,"componentType":5126,"count":18696,"max":[0.6100998,0.460059166,0.240001678],"min":[-35.8487854,-2.81587648,-2.65213013],"type":"VEC3","name":"accessorPositions"},{"bufferView":2,"byteOffset":282528,"componentType":5126,"count":18696,"type":"VEC4","name":"accessorTangents"},{"bufferView":1,"byteOffset":648144,"componentType":5126,"count":18696,"type":"VEC3","name":"accessorNormals"},{"bufferView":3,"byteOffset":282528,"componentType":5126,"count":18696,"type":"VEC2","name":"accessorUVs"}],"bufferViews":[{"buffer":0,"byteLength":72708,"name":"bufferViewScalar"},{"buffer":0,"byteOffset":72708,"byteLength":872496,"byteStride":12,"name":"bufferViewFloatVec3"},{"buffer":0,"byteOffset":945204,"byteLength":581664,"byteStride":16,"name":"bufferViewFloatVec4"},{"buffer":0,"byteOffset":1526868,"byteLength":432096,"byteStride":8,"name":"bufferViewFloatVec2"}],"buffers":[{"uri":"frt4.bin","byteLength":1958964}],"materials":[{"pbrMetallicRoughness":{"baseColorFactor":[0.6125001,0.6125001,0.6125001,1.0],"metallicFactor":0.0,"roughnessFactor":0.9},"emissiveFactor":[0.0,0.0,0.0],"alphaMode":"OPAQUE","name":"_Cuffs 1wire_868686"}],"extensions":{"KHR_lights":{"lights":[{"color":[1.0,1.0,1.0],"intensity":1.0,"type":"ambient"}]}}}