{"asset":{"version":"2.0","generator":"babylon.js glTF exporter for 3ds max 2015 v1.2.16","copyright":"2017 (c) BabylonJS"},"extensionsUsed":["KHR_lights"],"scene":0,"scenes":[{"nodes":[0,1],"extensions":{"KHR_lights":{"light":0}}}],"nodes":[{"mesh":0,"translation":[0.0,0.0,-3.81469727E-06],"rotation":[0.0,0.0,0.0,1.0],"scale":[1.0,1.0,1.0],"name":"base"},{"mesh":1,"translation":[-0.03554841,109.430557,12.161602],"rotation":[-0.7253108,0.6812542,-0.056285467,-0.0815415457],"scale":[1.0,1.0,1.00000012],"name":"button"}],"meshes":[{"primitives":[{"attributes":{"POSITION":1,"TANGENT":2,"NORMAL":3,"TEXCOORD_0":4,"TEXCOORD_1":5},"indices":0,"mode":4,"material":0}],"name":"base"},{"primitives":[{"attributes":{"POSITION":7,"TANGENT":8,"NORMAL":9,"TEXCOORD_0":10},"indices":6,"mode":4,"material":0}],"name":"button"}],"accessors":[{"bufferView":0,"componentType":5123,"count":32310,"type":"SCALAR","name":"accessorIndices"},{"bufferView":1,"componentType":5126,"count":32310,"max":[20.8246117,154.646332,12.516242],"min":[-20.8607788,105.284286,-6.86675167],"type":"VEC3","name":"accessorPositions"},{"bufferView":2,"componentType":5126,"count":32310,"type":"VEC4","name":"accessorTangents"},{"bufferView":1,"byteOffset":387720,"componentType":5126,"count":32310,"type":"VEC3","name":"accessorNormals"},{"bufferView":3,"componentType":5126,"count":32310,"type":"VEC2","name":"accessorUVs"},{"bufferView":3,"byteOffset":258480,"componentType":5126,"count":32310,"type":"VEC2","name":"accessorUV2s"},{"bufferView":0,"byteOffset":64620,"componentType":5123,"count":18696,"type":"SCALAR","name":"accessorIndices"},{"bufferView":1,"byteOffset":775440,"componentType":5126,"count":18696,"max":[0.6415634,0.474480152,-0.207862854],"min":[-35.9247437,-2.81846476,-2.755291],"type":"VEC3","name":"accessorPositions"},{"bufferView":2,"byteOffset":516960,"componentType":5126,"count":18696,"type":"VEC4","name":"accessorTangents"},{"bufferView":1,"byteOffset":999792,"componentType":5126,"count":18696,"type":"VEC3","name":"accessorNormals"},{"bufferView":3,"byteOffset":516960,"componentType":5126,"count":18696,"type":"VEC2","name":"accessorUVs"}],"bufferViews":[{"buffer":0,"byteLength":102012,"name":"bufferViewScalar"},{"buffer":0,"byteOffset":102012,"byteLength":1224144,"byteStride":12,"name":"bufferViewFloatVec3"},{"buffer":0,"byteOffset":1326156,"byteLength":816096,"byteStride":16,"name":"bufferViewFloatVec4"},{"buffer":0,"byteOffset":2142252,"byteLength":666528,"byteStride":8,"name":"bufferViewFloatVec2"}],"buffers":[{"uri":"frt9.bin","byteLength":2808780}],"materials":[{"pbrMetallicRoughness":{"baseColorFactor":[0.6125001,0.6125001,0.6125001,1.0],"metallicFactor":0.0,"roughnessFactor":0.9},"emissiveFactor":[0.0,0.0,0.0],"alphaMode":"OPAQUE","name":"_f002wire_868686"}],"extensions":{"KHR_lights":{"lights":[{"color":[1.0,1.0,1.0],"intensity":1.0,"type":"ambient"}]}}}