{
    "accessors" : [
        {
            "bufferView" : 0,
            "componentType" : 5123,
            "count" : 4704,
            "max" : [
                881
            ],
            "min" : [
                0
            ],
            "type" : "SCALAR"
        },
        {
            "bufferView" : 1,
            "componentType" : 5126,
            "count" : 882,
            "max" : [
                1.2783303260803223,
                0.0562286376953125,
                1.1988563537597656
            ],
            "min" : [
                -7.8449602127075195,
                -0.709503173828125,
                -0.5755748748779297
            ],
            "type" : "VEC3"
        },
        {
            "bufferView" : 2,
            "componentType" : 5126,
            "count" : 882,
            "max" : [
                0.9739677309989929,
                0.99951171875,
                0.999725341796875
            ],
            "min" : [
                -0.9940794110298157,
                -0.6448866128921509,
                -0.5903195142745972
            ],
            "type" : "VEC3"
        },
        {
            "bufferView" : 3,
            "componentType" : 5126,
            "count" : 882,
            "max" : [
                0.9998108148574829,
                0.9250991940498352,
                0.9961555004119873,
                1.0
            ],
            "min" : [
                -0.08710756152868271,
                -0.9409793019294739,
                -0.9881324768066406,
                1.0
            ],
            "type" : "VEC4"
        },
        {
            "bufferView" : 4,
            "componentType" : 5126,
            "count" : 882,
            "max" : [
                0.9308369755744934,
                0.43193352222442627
            ],
            "min" : [
                0.08629100024700165,
                0.07152801752090454
            ],
            "type" : "VEC2"
        },
        {
            "bufferView" : 5,
            "componentType" : 5121,
            "count" : 576,
            "max" : [
                143
            ],
            "min" : [
                0
            ],
            "type" : "SCALAR"
        },
        {
            "bufferView" : 6,
            "componentType" : 5126,
            "count" : 144,
            "max" : [
                2.040677547454834,
                0.755035400390625,
                2.499114990234375
            ],
            "min" : [
                -8.616287231445312,
                -1.1122283935546875,
                -0.6245822906494141
            ],
            "type" : "VEC3"
        },
        {
            "bufferView" : 7,
            "componentType" : 5126,
            "count" : 144,
            "max" : [
                0.6997894048690796,
                0.9951781034469604,
                0.9624317288398743
            ],
            "min" : [
                -0.6906949281692505,
                -0.9936216473579407,
                -0.43165379762649536
            ],
            "type" : "VEC3"
        },
        {
            "bufferView" : 8,
            "componentType" : 5126,
            "count" : 144,
            "max" : [
                0.9995658993721008,
                0.7467139363288879,
                0.4114430248737335,
                1.0
            ],
            "min" : [
                -0.9943589568138123,
                -0.6558302044868469,
                -0.7465272545814514,
                -1.0
            ],
            "type" : "VEC4"
        },
        {
            "bufferView" : 9,
            "componentType" : 5126,
            "count" : 144,
            "max" : [
                0.4172516167163849,
                0.9686309285461903
            ],
            "min" : [
                0.32969701290130615,
                0.9036862850189209
            ],
            "type" : "VEC2"
        },
        {
            "bufferView" : 10,
            "componentType" : 5123,
            "count" : 5904,
            "max" : [
                1035
            ],
            "min" : [
                0
            ],
            "type" : "SCALAR"
        },
        {
            "bufferView" : 11,
            "componentType" : 5126,
            "count" : 1036,
            "max" : [
                0.4210214912891388,
                0.5513763427734375,
                1.1208723783493042
            ],
            "min" : [
                -7.076750755310059,
                -0.4210309684276581,
                0.0877389907836914
            ],
            "type" : "VEC3"
        },
        {
            "bufferView" : 12,
            "componentType" : 5126,
            "count" : 1036,
            "max" : [
                1.0,
                1.0,
                1.0
            ],
            "min" : [
                -1.0,
                -0.999969482421875,
                -1.0
            ],
            "type" : "VEC3"
        },
        {
            "bufferView" : 13,
            "componentType" : 5126,
            "count" : 1036,
            "max" : [
                1.0,
                0.1943652182817459,
                1.0,
                1.0
            ],
            "min" : [
                -0.17071375250816345,
                -0.19950953125953674,
                -1.0,
                -1.0
            ],
            "type" : "VEC4"
        },
        {
            "bufferView" : 14,
            "componentType" : 5126,
            "count" : 1036,
            "max" : [
                0.5413537621498108,
                0.541353851556778
            ],
            "min" : [
                0.4586460292339325,
                0.4586462378501892
            ],
            "type" : "VEC2"
        },
        {
            "bufferView" : 15,
            "componentType" : 5123,
            "count" : 34104,
            "max" : [
                5943
            ],
            "min" : [
                0
            ],
            "type" : "SCALAR"
        },
        {
            "bufferView" : 16,
            "componentType" : 5126,
            "count" : 5944,
            "max" : [
                1.321332573890686,
                1.435516357421875,
                1.1891322135925293
            ],
            "min" : [
                -7.818320274353027,
                -1.3213413953781128,
                -2.0269250869750977
            ],
            "type" : "VEC3"
        },
        {
            "bufferView" : 17,
            "componentType" : 5126,
            "count" : 5944,
            "max" : [
                1.0,
                1.0,
                0.99993896484375
            ],
            "min" : [
                -0.999969482421875,
                -1.0,
                -0.999969482421875
            ],
            "type" : "VEC3"
        },
        {
            "bufferView" : 18,
            "componentType" : 5126,
            "count" : 5944,
            "max" : [
                1.0,
                0.5111827850341797,
                1.0,
                1.0
            ],
            "min" : [
                -0.5317589640617371,
                -1.0,
                -1.0,
                -1.0
            ],
            "type" : "VEC4"
        },
        {
            "bufferView" : 19,
            "componentType" : 5126,
            "count" : 5944,
            "max" : [
                1.0,
                1.0
            ],
            "min" : [
                0.0,
                1.9073486328125e-06
            ],
            "type" : "VEC2"
        },
        {
            "bufferView" : 20,
            "componentType" : 5123,
            "count" : 27768,
            "max" : [
                4745
            ],
            "min" : [
                0
            ],
            "type" : "SCALAR"
        },
        {
            "bufferView" : 21,
            "componentType" : 5126,
            "count" : 4746,
            "max" : [
                1.3369061946868896,
                1.451080322265625,
                1.470393180847168
            ],
            "min" : [
                -7.83395528793335,
                -1.3370001316070557,
                -2.0427474975585938
            ],
            "type" : "VEC3"
        },
        {
            "bufferView" : 22,
            "componentType" : 5126,
            "count" : 4746,
            "max" : [
                1.0,
                1.0,
                0.999969482421875
            ],
            "min" : [
                -1.0,
                -1.0,
                -1.0
            ],
            "type" : "VEC3"
        },
        {
            "bufferView" : 23,
            "componentType" : 5126,
            "count" : 4746,
            "max" : [
                1.0,
                1.0,
                0.9999999403953552,
                1.0
            ],
            "min" : [
                -0.6182550191879272,
                -0.5274888277053833,
                -1.0,
                1.0
            ],
            "type" : "VEC4"
        },
        {
            "bufferView" : 24,
            "componentType" : 5126,
            "count" : 4746,
            "max" : [
                1.0,
                1.0
            ],
            "min" : [
                0.0,
                0.0
            ],
            "type" : "VEC2"
        }
    ],
    "asset" : {
        "generator" : "Khronos Blender glTF 2.0 exporter",
        "version" : "2.0"
    },
    "bufferViews" : [
        {
            "buffer" : 0,
            "byteLength" : 9408,
            "byteOffset" : 0,
            "target" : 34963
        },
        {
            "buffer" : 0,
            "byteLength" : 10584,
            "byteOffset" : 9408,
            "target" : 34962
        },
        {
            "buffer" : 0,
            "byteLength" : 10584,
            "byteOffset" : 19992,
            "target" : 34962
        },
        {
            "buffer" : 0,
            "byteLength" : 14112,
            "byteOffset" : 30576,
            "target" : 34962
        },
        {
            "buffer" : 0,
            "byteLength" : 7056,
            "byteOffset" : 44688,
            "target" : 34962
        },
        {
            "buffer" : 0,
            "byteLength" : 576,
            "byteOffset" : 51744,
            "target" : 34963
        },
        {
            "buffer" : 0,
            "byteLength" : 1728,
            "byteOffset" : 52320,
            "target" : 34962
        },
        {
            "buffer" : 0,
            "byteLength" : 1728,
            "byteOffset" : 54048,
            "target" : 34962
        },
        {
            "buffer" : 0,
            "byteLength" : 2304,
            "byteOffset" : 55776,
            "target" : 34962
        },
        {
            "buffer" : 0,
            "byteLength" : 1152,
            "byteOffset" : 58080,
            "target" : 34962
        },
        {
            "buffer" : 0,
            "byteLength" : 11808,
            "byteOffset" : 59232,
            "target" : 34963
        },
        {
            "buffer" : 0,
            "byteLength" : 12432,
            "byteOffset" : 71040,
            "target" : 34962
        },
        {
            "buffer" : 0,
            "byteLength" : 12432,
            "byteOffset" : 83472,
            "target" : 34962
        },
        {
            "buffer" : 0,
            "byteLength" : 16576,
            "byteOffset" : 95904,
            "target" : 34962
        },
        {
            "buffer" : 0,
            "byteLength" : 8288,
            "byteOffset" : 112480,
            "target" : 34962
        },
        {
            "buffer" : 0,
            "byteLength" : 68208,
            "byteOffset" : 120768,
            "target" : 34963
        },
        {
            "buffer" : 0,
            "byteLength" : 71328,
            "byteOffset" : 188976,
            "target" : 34962
        },
        {
            "buffer" : 0,
            "byteLength" : 71328,
            "byteOffset" : 260304,
            "target" : 34962
        },
        {
            "buffer" : 0,
            "byteLength" : 95104,
            "byteOffset" : 331632,
            "target" : 34962
        },
        {
            "buffer" : 0,
            "byteLength" : 47552,
            "byteOffset" : 426736,
            "target" : 34962
        },
        {
            "buffer" : 0,
            "byteLength" : 55536,
            "byteOffset" : 474288,
            "target" : 34963
        },
        {
            "buffer" : 0,
            "byteLength" : 56952,
            "byteOffset" : 529824,
            "target" : 34962
        },
        {
            "buffer" : 0,
            "byteLength" : 56952,
            "byteOffset" : 586776,
            "target" : 34962
        },
        {
            "buffer" : 0,
            "byteLength" : 75936,
            "byteOffset" : 643728,
            "target" : 34962
        },
        {
            "buffer" : 0,
            "byteLength" : 37968,
            "byteOffset" : 719664,
            "target" : 34962
        }
    ],
    "buffers" : [
        {
            "byteLength" : 757632,
            "uri" : "eyes.bin"
        }
    ],
    "materials" : [
        {
            "name" : "cornea",
            "pbrMetallicRoughness" : {
                "baseColorFactor" : [
                    0.7937255500812164,
                    0.7937255500812164,
                    0.7937255500812164,
                    1.0
                ],
                "metallicFactor" : 0.0
            }
        },
        {
            "name" : "eye",
            "pbrMetallicRoughness" : {
                "baseColorFactor" : [
                    0.6000000089406967,
                    0.6000000089406967,
                    0.6000000089406967,
                    1.0
                ],
                "metallicFactor" : 0.0
            }
        },
        {
            "name" : "eye black",
            "pbrMetallicRoughness" : {
                "baseColorFactor" : [
                    0.0,
                    0.0,
                    0.0,
                    1.0
                ],
                "metallicFactor" : 0.0
            }
        },
        {
            "name" : "eye wet",
            "pbrMetallicRoughness" : {
                "baseColorFactor" : [
                    0.7937255500812164,
                    0.7937255500812164,
                    0.7937255500812164,
                    1.0
                ],
                "metallicFactor" : 0.0
            }
        },
        {
            "alphaMode" : "BLEND",
            "name" : "hair",
            "pbrMetallicRoughness" : {
                "baseColorFactor" : [
                    0.4705882619409003,
                    0.4705882619409003,
                    0.4705882619409003,
                    0.0
                ],
                "metallicFactor" : 0.0
            }
        }
    ],
    "meshes" : [
        {
            "name" : "Untitled",
            "primitives" : [
                {
                    "attributes" : {
                        "NORMAL" : 2,
                        "POSITION" : 1,
                        "TANGENT" : 3,
                        "TEXCOORD_0" : 4
                    },
                    "indices" : 0,
                    "material" : 3
                },
                {
                    "attributes" : {
                        "NORMAL" : 7,
                        "POSITION" : 6,
                        "TANGENT" : 8,
                        "TEXCOORD_0" : 9
                    },
                    "indices" : 5,
                    "material" : 4
                },
                {
                    "attributes" : {
                        "NORMAL" : 12,
                        "POSITION" : 11,
                        "TANGENT" : 13,
                        "TEXCOORD_0" : 14
                    },
                    "indices" : 10,
                    "material" : 2
                },
                {
                    "attributes" : {
                        "NORMAL" : 17,
                        "POSITION" : 16,
                        "TANGENT" : 18,
                        "TEXCOORD_0" : 19
                    },
                    "indices" : 15,
                    "material" : 1
                },
                {
                    "attributes" : {
                        "NORMAL" : 22,
                        "POSITION" : 21,
                        "TANGENT" : 23,
                        "TEXCOORD_0" : 24
                    },
                    "indices" : 20,
                    "material" : 0
                }
            ]
        }
    ],
    "nodes" : [
        {
            "name" : "Bip002",
            "rotation" : [
                1.4040217877209216e-09,
                -0.7071061730384827,
                2.805523990900838e-07,
                0.707107424736023
            ],
            "translation" : [
                2.3572567897645058e-08,
                116.14320373535156,
                0.07805740833282471
            ]
        },
        {
            "mesh" : 0,
            "name" : "cornea_left",
            "rotation" : [
                2.7376104855258987e-18,
                -5.878973752260208e-09,
                -4.656612873077393e-10,
                1.0
            ],
            "translation" : [
                0.0,
                4.57763671875e-05,
                -0.0
            ]
        },
        {
            "name" : "eye_left",
            "rotation" : [
                -0.7114512920379639,
                -0.7004022598266602,
                -0.05354629456996918,
                0.02016334980726242
            ],
            "scale" : [
                1.000000238418579,
                1.0,
                1.000000238418579
            ],
            "translation" : [
                11.69444751739502,
                3.278576612472534,
                -7.149293422698975
            ]
        },
        {
            "children" : [
                0
            ],
            "name" : "turntable",
            "rotation" : [
                -1.497038653042182e-07,
                -1.5099578831723193e-07,
                4.550921000722602e-14,
                1.0
            ],
            "translation" : [
                0.0,
                -5.000000953674316,
                -4.76837158203125e-07
            ]
        },
        {
            "children" : [
                3
            ],
            "name" : "turntable_bones",
            "rotation" : [
                -2.1855694143368964e-08,
                0.0,
                -0.0,
                1.0
            ],
            "scale" : [
                0.009999999776482582,
                0.009999999776482582,
                0.009999999776482582
            ],
            "translation" : [
                0.0,
                -0.14655852317810059,
                -0.019392622634768486
            ]
        }
    ],
    "scene" : 0,
    "scenes" : [
        {
            "name" : "Scene",
            "nodes" : [
                4,
                2,
                1
            ]
        }
    ]
}
