<?xml version="1.0" encoding="utf-8"?>
<!-- Generator: Adobe Illustrator 19.2.0, SVG Export Plug-In . SVG Version: 6.00 Build 0)  -->
<svg version="1.1" id="Слой_1" xmlns="http://www.w3.org/2000/svg" xmlns:xlink="http://www.w3.org/1999/xlink" x="0px" y="0px"
	 viewBox="0 0 54.7 30.4" style="enable-background:new 0 0 54.7 30.4;" xml:space="preserve">
<style type="text/css">
	.st0{fill:none;stroke:#fff;stroke-width:1.8;stroke-linecap:round;stroke-miterlimit:22.93;stroke-dasharray:0.7,2.5;}
	.st1{fill:none;stroke:#fff;stroke-width:1.6;stroke-miterlimit:22.93;}
</style>
<title>ИКОНКИ-3</title>
<path class="st0" d="M47.7,18.3c3.8,1.2,5.9,2.8,5.9,4.4c0,3.8-11.7,6.9-26.2,6.9s-26.2-3-26.2-6.9c0-1.6,2.3-3.2,6.3-4.5"/>
<path class="st1" d="M13.2,7.2c0-3.1,2.5-5.7,5.7-5.7s5.7,2.6,5.7,5.7s-2.5,5.7-5.7,5.7"/>
<path class="st1" d="M12.5,19.6c0,3.6,2.9,6.4,6.4,6.4s6.4-2.9,6.4-6.4s-2.9-6.4-6.4-6.4"/>
<path class="st1" d="M33.2,25.9h-4.5V1.6h4.5c5,0,9,4,9,9V17C42.2,21.9,38.2,25.9,33.2,25.9z"/>
</svg>
