<?xml version="1.0" encoding="utf-8"?>
<!-- Generator: Adobe Illustrator 22.0.0, SVG Export Plug-In . SVG Version: 6.00 Build 0)  -->
<svg version="1.1" id="Слой_1" xmlns="http://www.w3.org/2000/svg" xmlns:xlink="http://www.w3.org/1999/xlink" x="0px" y="0px"
	 viewBox="0 0 52.6 53.5" style="enable-background:new 0 0 52.6 53.5;" xml:space="preserve">
<style type="text/css">
	.st0{fill:#FFFFFF;}
</style>
<g>
	<g>
		<rect y="0" class="st0" width="52.6" height="53.5"/>
		<g>
			<path d="M48.1,31.6c2.1,0.5,2.1,1,2.1,1c0.7-0.6,0.7-2.2-0.2-2.9c-1-0.8-3.7-0.9-4.1-1.6C45.6,30.2,46.3,31,48.1,31.6z"/>
		</g>
		<g>
			<path d="M47.1,35.5c2,0.9,1.9,1.4,1.9,1.4c0.8-0.4,1.1-2.1,0.3-2.9c-0.9-1-3.5-1.5-3.8-2.3C44.9,33.8,45.4,34.7,47.1,35.5z"/>
		</g>
		<g>
			<path d="M45.4,39.3C47.2,40.5,47,41,47,41c0.9-0.3,1.4-1.8,0.8-2.8c-0.7-1.1-3.1-2.1-3.3-2.9C43.6,37.2,43.9,38.2,45.4,39.3z"/>
		</g>
		<g>
			<path d="M43.1,42.7c1.5,1.5,1.3,1.9,1.3,1.9c0.9-0.1,1.7-1.5,1.3-2.6c-0.5-1.2-2.7-2.6-2.7-3.5C41.6,40.2,41.8,41.3,43.1,42.7z"
				/>
		</g>
		<g>
			<path d="M40.2,45.6c1.3,1.8,0.9,2.1,0.9,2.1c0.9,0.1,2-1.2,1.7-2.3c-0.3-1.3-2.2-3.1-2-3.9C39.2,42.9,39.2,44,40.2,45.6z"/>
		</g>
		<g>
			<path d="M36.8,48c0.9,2,0.5,2.3,0.5,2.3c0.9,0.2,2.1-0.8,2.1-2c0-1.3-1.6-3.4-1.3-4.2C36.3,45.2,36.1,46.2,36.8,48z"/>
		</g>
		<g>
			<path d="M33.1,49.7c0.5,2.1,0.1,2.3,0.1,2.3c0.8,0.4,2.3-0.4,2.4-1.6c0.2-1.3-1-3.7-0.5-4.4C33.1,46.8,32.7,47.9,33.1,49.7z"/>
		</g>
		<g>
			<path d="M29.1,50.7c0.2,2.2-0.3,2.3-0.3,2.3c0.8,0.5,2.3,0,2.7-1.1c0.4-1.2-0.3-3.8,0.3-4.4C29.6,47.9,29.1,48.8,29.1,50.7z"/>
		</g>
		<g>
			<path d="M25,51c-0.2,2.2-0.7,2.2-0.7,2.2c0.6,0.7,2.3,0.4,2.8-0.6c0.6-1.1,0.4-3.8,1-4.3C26,48.3,25.3,49.2,25,51z"/>
		</g>
		<g>
			<path d="M21,50.6c-0.6,2.1-1.1,2-1.1,2c0.5,0.8,2.2,0.8,2.9-0.1c0.8-1,1-3.6,1.8-4C22.4,48.1,21.5,48.8,21,50.6z"/>
		</g>
		<g>
			<path d="M17,49.4c-1,1.9-1.5,1.8-1.5,1.8c0.4,0.9,2,1.2,2.9,0.4c1-0.8,1.7-3.4,2.5-3.6C18.9,47.3,17.9,47.8,17,49.4z"/>
		</g>
		<g>
			<path d="M13.3,47.5c-1.3,1.7-1.8,1.5-1.8,1.5c0.2,0.9,1.8,1.5,2.7,0.9c1.1-0.6,2.2-3.1,3.1-3.1C15.6,45.8,14.5,46.1,13.3,47.5z"
				/>
		</g>
		<g>
			<path d="M5.1,38.6C3,39.4,2.8,39,2.8,39c-0.3,0.9,0.8,2.2,1.9,2.2c1.3,0,3.5-1.5,4.3-1.1C7.9,38.2,6.8,38,5.1,38.6z"/>
		</g>
		<g>
			<path d="M3.5,34.8c-2.1,0.4-2.3,0-2.3,0c-0.4,0.8,0.3,2.3,1.5,2.5c1.3,0.3,3.7-0.8,4.4-0.3C6.4,34.9,5.3,34.5,3.5,34.8z"/>
		</g>
		<g>
			<path d="M2.7,30.8c-2.2,0.1-2.3-0.4-2.3-0.4c-0.6,0.7-0.1,2.3,1,2.7c1.2,0.5,3.8-0.1,4.4,0.5C5.4,31.4,4.5,30.8,2.7,30.8z"/>
		</g>
		<g>
			<path d="M2.6,26.7c-2.2-0.3-2.2-0.8-2.2-0.8c-0.7,0.6-0.5,2.3,0.5,2.9c1.1,0.7,3.7,0.5,4.2,1.2C5.2,27.8,4.4,27,2.6,26.7z"/>
		</g>
		<g>
			<path d="M3.2,22.6c-2.1-0.7-2-1.2-2-1.2c-0.8,0.5-0.9,2.1,0,2.9c1,0.9,3.6,1.2,3.9,2C5.6,24.2,4.9,23.3,3.2,22.6z"/>
		</g>
		<g>
			<path d="M4.5,18.7c-1.9-1.1-1.7-1.5-1.7-1.5c-0.9,0.3-1.2,1.9-0.6,2.8c0.8,1,3.3,1.8,3.5,2.6C6.6,20.7,6.1,19.7,4.5,18.7z"/>
		</g>
		<g>
			<path d="M6.5,15.1c-1.7-1.4-1.4-1.8-1.4-1.8C4.2,13.5,3.5,15,4.1,16c0.6,1.2,2.9,2.4,3,3.2C8.2,17.4,7.9,16.4,6.5,15.1z"/>
		</g>
		<g>
			<path d="M9.1,12c-1.4-1.7-1.1-2-1.1-2c-0.9,0-1.8,1.4-1.5,2.5c0.4,1.2,2.5,2.9,2.4,3.7C10.4,14.5,10.3,13.4,9.1,12z"/>
		</g>
		<g>
			<path d="M12.3,9.3c-1.1-1.9-0.7-2.2-0.7-2.2c-0.9-0.2-2.1,1-1.9,2.2c0.1,1.3,1.9,3.3,1.7,4.1C13.1,12.1,13.2,11,12.3,9.3z"/>
		</g>
		<g>
			<path d="M46.7,19.4c2.1-0.6,2.3-0.2,2.3-0.2c0.4-0.9-0.6-2.2-1.7-2.4c-1.3-0.2-3.6,1.2-4.3,0.7C43.8,19.6,44.9,19.9,46.7,19.4z"
				/>
		</g>
		<g>
			<path d="M47.9,23.4c2.2-0.3,2.3,0.2,2.3,0.2c0.5-0.8-0.1-2.3-1.2-2.6c-1.2-0.4-3.8,0.5-4.4-0.1C45,23,46,23.5,47.9,23.4z"/>
		</g>
		<g>
			<path d="M48.3,27.4c2.2,0.1,2.2,0.6,2.2,0.6c0.6-0.7,0.3-2.3-0.7-2.8c-1.1-0.6-3.8-0.2-4.3-0.8C45.6,26.6,46.5,27.3,48.3,27.4z"
				/>
		</g>
		<path d="M7.3,42.1c-1.8,1.2-2.2,0.8-2.2,0.8c-0.1,0.9,1.1,2,2.2,1.8c0.4-0.1,0.9-0.3,1.4-0.6l1.8-2C9.5,41.2,8.6,41.3,7.3,42.1z"
			/>
		<path d="M44.8,15.8c1.9-1,2.2-0.6,2.2-0.6c0.2-0.9-0.9-2.1-2.1-2c-0.4,0-0.9,0.2-1.4,0.4l-1.9,2.1C42.6,16.4,43.5,16.4,44.8,15.8z
			"/>
		<g>
			<path d="M7.1,48.1c0.1,0.4-2.4,4.2-2.9,4.9c0.7-0.5,4.2-3.5,4.6-3.4L18.6,39l-1.7-1.6L7.1,48.1z"/>
			<polygon points="52.6,3.5 48.7,0 44.2,5.1 44,7.3 35.6,16.7 37.3,18.2 45.8,8.9 48.1,8.6 			"/>
		</g>
		<rect x="14.8" y="4.7" width="5.9" height="5.9"/>
		<rect x="30.1" y="4.7" width="5.9" height="5.9"/>
		<path d="M38.5,7.2v3.1c0.2-0.2,0.5-0.4,0.7-0.6c1.5-1.6,1.9-1.3,1.9-1.3C41,7.5,39.6,6.8,38.5,7.2z"/>
	</g>
</g>
</svg>
