<svg id="Слой_1" data-name="Слой 1" xmlns="http://www.w3.org/2000/svg" viewBox="0 0 61.72 45.18"><defs><style>.cls-1{fill:none;stroke:#fff;stroke-linecap:round;stroke-linejoin:round;stroke-width:1.42px;}</style></defs><title>иконки_2-6</title><path class="cls-1" d="M61,22.38V0.71h-6.6V1.53a2.86,2.86,0,0,1-2.85,2.85h0a2.86,2.86,0,0,1-2.85-2.85V0.71h-8.1V1.53a2.86,2.86,0,0,1-2.85,2.85h0a2.86,2.86,0,0,1-2.85-2.85V0.71h-8.1V1.53A2.86,2.86,0,0,1,24,4.38h0a2.86,2.86,0,0,1-2.85-2.85V0.71H13V1.53a2.86,2.86,0,0,1-2.85,2.85h0A2.86,2.86,0,0,1,7.31,1.53V0.71H0.71V22.38m7.2-12h15.3V21.77H7.91V10.42h0Zm15.3,0h15.3V21.77H23.21V10.42h0Zm15.3,0h15.3V21.77H38.51V10.42h0ZM7.91,21.77h15.3V33.12H7.91V21.77h0Zm15.3,0h15.3V33.12H23.21V21.77h0Zm15.3,0h15.3V33.12H38.51V21.77h0ZM7.91,33.12h15.3V44.47H7.91V33.12h0Zm15.3,0h15.3V44.47H23.21V33.12h0Zm15.3,0h15.3V44.47H38.51V33.12h0Z"/></svg>