<svg id="Слой_1" data-name="Слой 1" xmlns="http://www.w3.org/2000/svg" viewBox="0 0 54.58 47.49"><defs><style>.cls-1,.cls-2{fill:none;stroke:#fff;stroke-miterlimit:22.93;}.cls-1{stroke-width:1.42px;}.cls-2{stroke-width:0.57px;}</style></defs><title>иконки_2</title><path class="cls-1" d="M15.39,25.38L8.78,24.17a1.21,1.21,0,0,1-1-1.41l1-5.45a1.21,1.21,0,0,1,1.41-1l6.38,1.17a15.49,15.49,0,0,1,2.46-3.93L15.32,8.15a1.21,1.21,0,0,1,.31-1.68l4.56-3.15a1.21,1.21,0,0,1,1.68.31l3.75,5.43a15.52,15.52,0,0,1,4.1-.88L30.91,1.7a1.21,1.21,0,0,1,1.41-1l5.45,1a1.21,1.21,0,0,1,1,1.41L37.55,9.63a15.5,15.5,0,0,1,3.52,2.28L46.5,8.16a1.21,1.21,0,0,1,1.68.31L51.33,13A1.21,1.21,0,0,1,51,14.71l-5.43,3.75A15.51,15.51,0,0,1,46.5,23l6.38,1.17a1.21,1.21,0,0,1,1,1.41l-1,5.45a1.21,1.21,0,0,1-1.41,1l-6.61-1.21a15.52,15.52,0,0,1-2.08,3.12l3.75,5.43A1.21,1.21,0,0,1,46.19,41l-4.56,3.15a1.21,1.21,0,0,1-1.68-.31L36.2,38.42a15.51,15.51,0,0,1-4.1.88l-1.19,6.49a1.21,1.21,0,0,1-1.41,1l-5.45-1a1.21,1.21,0,0,1-1-1.41l1.19-6.49m6.56-21.09A7,7,0,1,1,27,29.59L9.58,41.39v0.1a4.43,4.43,0,1,1-2.89-4.16L24.1,25.56a7,7,0,0,1,6.73-8.79h0Z"/><polygon class="cls-2" points="3.46 41.48 3.88 40.75 4.3 40.02 5.15 40.02 5.99 40.02 6.41 40.75 6.83 41.48 6.41 42.22 5.99 42.95 5.15 42.95 4.3 42.95 3.88 42.22 3.46 41.48 3.46 41.48"/></svg>