<svg id="Слой_1" data-name="Слой 1" xmlns="http://www.w3.org/2000/svg" viewBox="0 0 55.42 46.06"><defs><style>.cls-1,.cls-2,.cls-3{fill:none;stroke:#fff;stroke-width:1.42px;}.cls-1,.cls-2{stroke-linecap:round;}.cls-1{stroke-linejoin:round;}.cls-2,.cls-3{stroke-miterlimit:22.93;}.cls-4,.cls-5{fill:#fff;}.cls-5{fill-rule:evenodd;}</style></defs><title>иконки_2-2</title><polyline class="cls-1" points="54.58 13.85 54.58 45.35 10.63 45.35 10.63 0.95 42.66 0.95"/><path class="cls-2" d="M17.91,12.73H42.36m-24.45,6H47.68M17.91,24.58H47.68M17.91,30.43H47.68M17.91,36.28H47.68"/><path class="cls-3" d="M50,0.71a4.67,4.67,0,1,1-4.67,4.67A4.67,4.67,0,0,1,50,.71h0Z"/><polygon class="cls-4" points="52.55 4.19 49.81 6.53 48.89 5.46 51.63 3.12 52.55 4.19 52.55 4.19"/><polygon class="cls-5" points="48.46 5.9 47.95 7.23 49.34 6.89 48.46 5.9 48.46 5.9"/><path class="cls-2" d="M5.59,1v44.4M0.71,1v44.4"/></svg>