<svg id="Слой_1" data-name="Слой 1" xmlns="http://www.w3.org/2000/svg" viewBox="0 0 53.81 46.02"><defs><style>.cls-1,.cls-2,.cls-3{fill:none;stroke:#000;stroke-width:1.42px;}.cls-1{stroke-linejoin:round;}.cls-2,.cls-3{stroke-miterlimit:22.93;}.cls-3{stroke-linecap:round;}</style></defs><title>иконки_2-8</title><path class="cls-1" d="M30.81,0.71A22.28,22.28,0,1,1,14.64,38.33c-0.52-.55-0.27-0.58-0.89-0.12L4.63,44.84a2.48,2.48,0,0,1-3.45-.55h0a2.48,2.48,0,0,1,.55-3.45l9.12-6.63c0.54-.39.48-0.38,0.18-1A22.29,22.29,0,0,1,30.81.71h0Z"/><path class="cls-2" d="M30.81,5.8A17.19,17.19,0,1,1,13.62,23,17.19,17.19,0,0,1,30.81,5.8h0ZM27.06,24.09A1.05,1.05,0,1,1,26,25.14a1.05,1.05,0,0,1,1.05-1.05h0ZM19.23,23a1.05,1.05,0,1,1-1.05,1.05A1.05,1.05,0,0,1,19.23,23h0ZM34.56,10.37a1.05,1.05,0,1,1-1.05,1.05,1.05,1.05,0,0,1,1.05-1.05h0Zm6.38,6a1.05,1.05,0,1,1-1.05,1.05,1.05,1.05,0,0,1,1.05-1.05h0ZM18.85,24.09l8.21,1.05,7.5-13.72,6.71,6.33"/><path class="cls-3" d="M19.23,27.23v3.6m7.83-2.66V35m7.39-19.76V35M40.94,20.5V31.1"/></svg>