<svg id="Слой_1" data-name="Слой 1" xmlns="http://www.w3.org/2000/svg" viewBox="0 0 62.36 45.83"><defs><style>.cls-1,.cls-2{fill:none;stroke:#000;stroke-miterlimit:22.93;stroke-width:1.42px;}.cls-1{stroke-linecap:round;}</style></defs><title>иконки_2-3</title><path class="cls-1" d="M61.65,31.58a10.65,10.65,0,0,0-21,.19"/><path class="cls-2" d="M51.14,11.61A5.32,5.32,0,0,1,56.36,17a5.23,5.23,0,1,1-10.44,0,5.32,5.32,0,0,1,5.22-5.42h0Z"/><path class="cls-1" d="M21.73,31.58a10.75,10.75,0,0,0-10.49-8.85,10.76,10.76,0,0,0-10.53,9"/><path class="cls-2" d="M11.22,11.61A5.32,5.32,0,0,1,16.44,17a5.32,5.32,0,0,1-5.22,5.42A5.32,5.32,0,0,1,6,17a5.32,5.32,0,0,1,5.22-5.42h0Z"/><path class="cls-1" d="M41.69,20.67a10.65,10.65,0,0,0-21,.19"/><path class="cls-2" d="M31.18,0.71A5.32,5.32,0,0,1,36.4,6.13,5.23,5.23,0,1,1,26,6.13,5.32,5.32,0,0,1,31.18.71h0Z"/><path class="cls-1" d="M42.6,44.91a11.57,11.57,0,0,0-22.84.2"/><path class="cls-2" d="M31.18,23.22a5.89,5.89,0,1,1-5.67,5.89,5.78,5.78,0,0,1,5.67-5.89h0Z"/></svg>