<svg id="Слой_1" data-name="Слой 1" xmlns="http://www.w3.org/2000/svg" viewBox="0 0 60.08 45.36"><defs><style>.cls-1{fill:none;stroke:#000;stroke-miterlimit:22.93;stroke-width:1.42px;}</style></defs><title>иконки_2-7</title><path class="cls-1" d="M29.76,0.71a22,22,0,0,1,22,22q0,0.21,0,.42H58.3l-9.2,8.7-9.2-8.7H46.8q0-.21,0-0.42A17.05,17.05,0,0,0,21.46,7.78L17.76,4.28a21.87,21.87,0,0,1,12-3.57h0ZM20.18,22.13L11,13.43l-9.2,8.7h6q0,0.27,0,.55a22,22,0,0,0,34.28,18.2l-3.69-3.49A17.05,17.05,0,0,1,12.71,22.68q0-.28,0-0.55h7.46Z"/></svg>