<svg id="Слой_1" data-name="Слой 1" xmlns="http://www.w3.org/2000/svg" viewBox="0 0 62.16 45.89"><defs><style>.cls-1,.cls-2{fill:none;stroke:#000;stroke-width:1.42px;}.cls-1{stroke-miterlimit:22.93;}.cls-2{stroke-linecap:round;stroke-linejoin:round;}</style></defs><title>иконки_2-4</title><path class="cls-1" d="M5,0.71A4.26,4.26,0,1,1,.71,5,4.26,4.26,0,0,1,5,.71H5Zm0,18A4.26,4.26,0,1,1,.71,22.95,4.26,4.26,0,0,1,5,18.69H5Zm0,18A4.26,4.26,0,1,1,.71,40.93,4.26,4.26,0,0,1,5,36.67H5Z"/><path class="cls-2" d="M9.22,5H49.65m-40.43,18H55.53m-46.31,18H61.46"/></svg>