<?xml version="1.0" encoding="UTF-8"?>
<!DOCTYPE svg PUBLIC "-//W3C//DTD SVG 1.1//EN" "http://www.w3.org/Graphics/SVG/1.1/DTD/svg11.dtd">
<!-- Creator: CorelDRAW 2017 -->
<svg xmlns="http://www.w3.org/2000/svg" xml:space="preserve" width="20px" height="20px" version="1.1" style="shape-rendering:geometricPrecision; text-rendering:geometricPrecision; image-rendering:optimizeQuality; fill-rule:evenodd; clip-rule:evenodd"
viewBox="0 0 20 20"
 xmlns:xlink="http://www.w3.org/1999/xlink">
 <defs>
  <style type="text/css">
   <![CDATA[
    .str2 {stroke:#999;stroke-miterlimit:22.9256}
    .str0 {stroke:#999;stroke-miterlimit:22.9256}
    .str1 {stroke:#999;stroke-linecap:round;stroke-miterlimit:22.9256}
    .fil0 {fill:none}
   ]]>
  </style>
 </defs>
 <g id="Слой_x0020_1">
  <metadata id="CorelCorpID_0Corel-Layer"/>
  <circle class="fil0 str0" cx="9.89" cy="11.18" r="4.16"/>
  <path class="fil0 str1" d="M7.77 11.14c0.03,-1.15 0.97,-2.07 2.12,-2.07"/>
  <path class="fil0 str2" d="M6.59 2.58l6.97 0c0.34,0 0.64,0.19 0.81,0.46l0 0 0 0c0.08,0.12 0.13,0.27 0.14,0.42l0.67 2 2.92 0.58 0 0c0.59,0.12 1.04,0.64 1.04,1.26l0 9.38c0,0.7 -0.58,1.29 -1.29,1.29l-15.56 0c-0.71,0 -1.29,-0.59 -1.29,-1.29l0 -9.38c0,-0.63 0.47,-1.17 1.08,-1.27l0 0 2.74 -0.44 0.83 -2.26 0 0c0.1,-0.43 0.48,-0.75 0.94,-0.75z"/>
 </g>
</svg>
