<?xml version="1.0" encoding="utf-8"?>
<!-- Generator: Adobe Illustrator 19.2.0, SVG Export Plug-In . SVG Version: 6.00 Build 0)  -->
<svg version="1.1" id="Слой_1" xmlns="http://www.w3.org/2000/svg" xmlns:xlink="http://www.w3.org/1999/xlink" x="0px" y="0px"
	 viewBox="0 0 170 173" style="enable-background:new 0 0 170 173;" xml:space="preserve">
<style type="text/css">
	.st0{fill:none;stroke:#000000;stroke-width:11.3725;stroke-miterlimit:22.9256;}
</style>
<!-- <path class="st0" d="M9.7,8.6h150.4V165H9.7L9.7,8.6L9.7,8.6z"/> -->
<path d="M60.5,146.2V33.1h35.2c6.2,0,10.9,0.4,14.2,1.1c4.6,0.9,8.4,2.7,11.5,5.3c3.1,2.6,5.6,6.2,7.5,10.9
	c1.9,4.7,2.8,9.8,2.8,15.4c0,9.6-2.5,17.7-7.6,24.3c-5,6.7-14.2,10-27.3,10H72.9v46.1L60.5,146.2L60.5,146.2z M72.9,86.8H97
	c8,0,13.6-1.8,17-5.4c3.3-3.6,5-8.7,5-15.2c0-4.7-1-8.8-2.9-12.1c-2-3.4-4.6-5.6-7.8-6.7c-2.1-0.7-5.9-1-11.5-1H73v40.4L72.9,86.8
	L72.9,86.8z"/>
<path d="M82.1,86.8H44.5v13.3h37.6V86.8z M96.1,106H44.5v13.3h51.6V106z"/>
</svg>
