<?xml version="1.0" encoding="utf-8"?>
<!-- Generator: Adobe Illustrator 19.2.0, SVG Export Plug-In . SVG Version: 6.00 Build 0)  -->
<svg version="1.1" id="Слой_1" xmlns="http://www.w3.org/2000/svg" xmlns:xlink="http://www.w3.org/1999/xlink" x="0px" y="0px"
	 viewBox="0 0 172 174" style="enable-background:new 0 0 172 174;" xml:space="preserve">
<style type="text/css">
	.st0{fill:none;stroke:#000000;stroke-width:11.4343;stroke-miterlimit:22.9256;}
	.st1{fill:none;stroke:#000000;stroke-width:9.1475;stroke-miterlimit:22.9256;}
	.st2{fill:none;stroke:#000000;stroke-width:9.1472;stroke-miterlimit:22.9256;}
	.st3{fill:none;stroke:#000000;stroke-width:9.1478;stroke-miterlimit:22.9256;}
</style>
<!-- <path class="st0" d="M9.7,8.6H161v157.3H9.7V8.6L9.7,8.6z"/> -->
<path class="st1" d="M85.4,43.3V17.6 M62.5,48.3L47.4,27.4 M108.2,48.3l15.1-20.9 M45.2,87.7H19.5 M47.2,110.6l-20.9,15 M47.2,64.8
	l-20.9-15 M124.7,87.7h25.7 M122.7,110.6l20.9,15 M122.7,64.8l20.9-15 M85.4,131.5v25.7 M62.5,128.5l-15.1,20.8 M108.2,128.5
	l15.1,20.8"/>
<path class="st2" d="M139.3,52.9L87.1,90.4"/>
<path class="st3" d="M74.4,64.8l17.3,24.1"/>
</svg>
