<svg xmlns="http://www.w3.org/2000/svg" width="595.3" height="841.9" viewBox="0 0 595.3 841.9">
    <style type="text/css">.st0{fill:none;stroke:#000000;stroke-width:11.4343;stroke-miterlimit:22.9256;}
        .st1{fill:none;stroke:#000000;stroke-width:9.1475;stroke-miterlimit:22.9256;}
        .st2{fill:none;stroke:#000000;stroke-width:9.1472;stroke-miterlimit:22.9256;}
        .st3{fill:none;stroke:#000000;stroke-width:9.1478;stroke-miterlimit:22.9256;}
    </style>
    <path class="st0" d="M221.7 342.6h151.3v157.3h-151.3v-157.3z"/>
    <path class="st1"
          d="M297.4 377.3v-25.7M274.5 382.3l-15.1-20.9M320.2 382.3l15.1-20.9M257.2 421.7h-25.7M259.2 444.6l-20.9 15M259.2 398.8l-20.9-15M336.7 421.7h25.7M334.7 444.6l20.9 15M334.7 398.8l20.9-15M297.4 465.5v25.7M274.5 462.5l-15.1 20.8M320.2 462.5l15.1 20.8"/>
    <path class="st2" d="M351.3 386.9l-52.2 37.5"/>
    <path class="st3" d="M286.4 398.8l17.3 24.1"/>
</svg>