<svg xmlns="http://www.w3.org/2000/svg" width="595.3" height="841.9" viewBox="0 0 595.3 841.9">
    <style type="text/css">.st0{fill-rule:evenodd;clip-rule:evenodd;fill:#434242;} .st1{fill:#434242;}</style>
    <path class="st0"
          d="M310.6 415.2l-6.6-6.8-15.6 15.4 6.6 6.7 15.6-15.3zM306.2 406.3l6.6 6.8 2.7-2.8-6.6-6.7-2.7 2.7zM287.3 428.2l-1.3 4.5 4.8-1-3.5-3.5z"/>
    <path class="st1"
          d="M313.2 417.3v19.8c0 .9-.4 1.7-1 2.3-.6.6-1.4.9-2.4.9h-27.4c-.9 0-1.8-.4-2.4-.9-.6-.6-1-1.4-1-2.3v-31.1c0-.9.4-1.7 1-2.3.6-.6 1.4-.9 2.4-.9h22.9v1.4h-22.9c-.5 0-1 .2-1.4.5-.3.3-.6.8-.6 1.3v31.1c0 .5.2.9.6 1.3.4.3.8.5 1.4.5h27.4c.5 0 1-.2 1.4-.5.3-.3.6-.8.6-1.3v-19.8h1.4z"/>
</svg>