<svg id="exit" xmlns="http://www.w3.org/2000/svg" viewBox="0 0 21.88 21.88">
    <title>exit</title>
    <path d="M6.3,3.06h14a3,3,0,0,1,3.23,2.65V9.84L21.54,8.59V5.7a1.19,1.19,0,0,0-1.29-1.08H6.3A1.19,1.19,0,0,0,5,5.7H5V22.29a1.19,1.19,0,0,0,1.28,1.09h14a1.19,1.19,0,0,0,1.28-1.05V19.23L23.46,18v4.3a3,3,0,0,1-3.21,2.65h-14a3,3,0,0,1-3.23-2.65V5.71A3,3,0,0,1,6.3,3.06Z"
          transform="translate(-3.06 -3.06)"/>
    <path d="M10.22,11.52h6.13v-1.2a1.57,1.57,0,0,1,.25-1.05c.44-.38,1.07,0,1.45.26L24.94,14,18,18.41c-.37.23-1,.64-1.45.26a1.61,1.61,0,0,1-.24-1.05V16.4H10.22a.88.88,0,0,1-1-.78V12.3a.88.88,0,0,1,1-.78Z"
          transform="translate(-3.06 -3.06)"/>
</svg>