<svg xmlns="http://www.w3.org/2000/svg" width="170" height="57" viewBox="0 0 17000 5700" shape-rendering="geometricPrecision" text-rendering="geometricPrecision" image-rendering="optimizeQuality" fill-rule="evenodd" clip-rule="evenodd"><defs><style>.str0{stroke:#d0d0d0;stroke-width:159.332}.fil0{fill:none}.fil0,.fil1{fill-rule:nonzero}.fil1{fill:#d0d0d0}</style></defs><g id="Layer_x0020_1"><g id="_2492794500624"><path class="fil0 str0" d="M1570 1014l-12 999-1276-6zM2052 1026v981l572-487zM878 2338h849l499 2240zM3671 1014l12 999 1276-6z"/><path class="fil0 str0" d="M3184 1026v981l-566-487zM4363 2332h-848l-500 2246z"/></g><path class="fil1" d="M8008 3470h161l-87-1501h-192l-169 686c-49 203-83 345-112 517h-6c-31-172-69-319-121-517l-176-686h-185l-89 1501h154l29-635c9-213 18-423 18-599h7c28 174 73 359 122 550l176 676h109l185-704c47-176 87-355 120-522h9c-6 169 5 390 16 588l31 646zm764-1519c-263 0-441 270-441 766 0 506 167 771 417 771 240 0 434-216 434-779 0-480-153-758-410-758zm-15 151c196 0 247 333 247 613 0 294-51 622-245 622-189 0-250-308-250-617 0-306 61-618 248-618zm630-133v1501h163l281-724c58-151 127-316 180-503h4c-13 200-17 388-17 708v519h153V1969h-160l-270 702c-62 162-142 361-193 523h-5c14-236 20-428 20-688v-537h-156zm132-270c13 147 107 216 249 216 152 0 234-69 254-216h-127c-9 65-42 123-125 123-89 0-115-60-127-123h-124zm1252 270v1501h169v-692h27c178 0 229 138 265 318 27 127 51 276 87 374h173c-46-129-69-276-100-416-38-183-98-341-283-381l368-704h-185l-321 682h-31v-682h-169zm1229-18c-262 0-441 270-441 766 0 506 167 771 417 771 241 0 434-216 434-779 0-480-153-758-410-758zm-15 151c196 0 247 333 247 613 0 294-51 622-245 622-189 0-249-308-249-617 0-306 60-618 247-618zm1259 1197c-36 18-94 33-158 33-183 0-352-151-352-610s187-615 347-615c78 0 116 16 152 31l38-145c-32-20-96-38-188-38-236 0-530 190-530 782 0 511 210 747 504 747 93 0 167-16 214-40l-27-145zm423 171h172V2123h274v-154h-720v154h274v1347zm613-1501v1501h169v-706h165c9 488 172 724 394 724 228 0 415-216 415-779 0-480-150-758-392-758-226 0-393 223-417 659h-165v-641h-169zm737 1368c-180 0-234-328-234-620 0-285 54-615 234-615 181 0 232 333 232 613 0 294-51 622-232 622zm1540 133h160l-87-1501h-191l-170 686c-49 203-82 345-111 517h-7c-31-172-69-319-120-517l-176-686h-185l-89 1501h154l29-635c8-213 17-423 17-599h7c29 174 74 359 123 550l176 676h109l185-704c47-176 87-355 120-522h9c-7 169 4 390 16 588l31 646z"/></g></svg>