<svg xmlns="http://www.w3.org/2000/svg" width="595.3" height="841.9" viewBox="0 0 595.3 841.9">
    <style type="text/css">
        .st0{fill-rule:evenodd;clip-rule:evenodd;stroke:#FEFEFE;stroke-width:8.5033;stroke-miterlimit:22.9256;}
        .st1{fill-rule:evenodd;clip-rule:evenodd;fill:#FEFEFE;stroke:#000000;stroke-width:0.5669;stroke-miterlimit:22.9256;}
    </style>
    <path class="st0"
          d="M297.9 343.1c43.4 0 78.6 35.2 78.6 78.6 0 43.4-35.2 78.6-78.6 78.6-43.4 0-78.6-35.2-78.6-78.6 0-43.4 35.2-78.6 78.6-78.6z"/>
    <path class="st1"
          d="M257.5 410c6.5 0 11.8 5.3 11.8 11.8 0 6.5-5.3 11.8-11.8 11.8-6.5 0-11.8-5.3-11.8-11.8 0-6.5 5.3-11.8 11.8-11.8zM297.9 410c6.5 0 11.8 5.3 11.8 11.8 0 6.5-5.3 11.8-11.8 11.8-6.5 0-11.8-5.3-11.8-11.8 0-6.5 5.3-11.8 11.8-11.8zM337.6 410c6.5 0 11.8 5.3 11.8 11.8 0 6.5-5.3 11.8-11.8 11.8-6.5 0-11.8-5.3-11.8-11.8 0-6.5 5.3-11.8 11.8-11.8z"/>
</svg>