<?xml version="1.0" encoding="utf-8"?>
<!-- Generator: Adobe Illustrator 19.2.0, SVG Export Plug-In . SVG Version: 6.00 Build 0)  -->
<svg version="1.1" id="Слой_1" xmlns="http://www.w3.org/2000/svg" xmlns:xlink="http://www.w3.org/1999/xlink" x="0px" y="0px"
	 viewBox="0 0 178 177" style="enable-background:new 0 0 178 177;" xml:space="preserve">
<style type="text/css">
	.st0{stroke:red;stroke-width:8.5033;stroke-miterlimit:22.9256;}
	.st1{fill:#FEFEFE;stroke:#000000;stroke-width:0.5669;stroke-miterlimit:22.9256;}
</style>
<!-- <path class="st0" d="M89.9,10.1c43.4,0,78.6,35.2,78.6,78.6s-35.2,78.6-78.6,78.6s-78.6-35.2-78.6-78.6S46.5,10.1,89.9,10.1z"/> -->
<path class="st1" d="M49.5,77c6.5,0,11.8,5.3,11.8,11.8s-5.3,11.8-11.8,11.8s-11.8-5.3-11.8-11.8S43,77,49.5,77z M89.9,77
	c6.5,0,11.8,5.3,11.8,11.8s-5.3,11.8-11.8,11.8s-11.8-5.3-11.8-11.8S83.4,77,89.9,77z M129.6,77c6.5,0,11.8,5.3,11.8,11.8
	s-5.3,11.8-11.8,11.8s-11.8-5.3-11.8-11.8S123.1,77,129.6,77z"/>
</svg>
