<svg xmlns="http://www.w3.org/2000/svg" width="595.3" height="841.9" viewBox="0 0 595.3 841.9">
    <style type="text/css">.st0{fill:#434242;} .st1{fill-rule:evenodd;clip-rule:evenodd;fill:#434242;}</style>
    <path class="st0"
          d="M283.2 440.7h28.9v-10.1h-28.9v10.1zm29.6 1.4h-31v-12.9h31.8v12.9h-.8zM283.2 417.3h28.9v-9.4l-4.4-5.6h-24.6v15h.1zm29.6 1.4h-31v-17.8h26.7l5.1 6.5v11.3h-.8z"/>
    <path class="st1"
          d="M308.1 401.6v6h4.7l-4.7-6zM312.8 418h-30.3v-3.2h-7.5v19.6h7.5v-4.5h30.3v4.5h6.9v-14.5l-6.9-5.1v3.2zm1.2 1.4h1.9v3h-1.9v-3z"/>
</svg>