<svg xmlns="http://www.w3.org/2000/svg" width="595.3" height="841.9" viewBox="0 0 595.3 841.9">
    <style type="text/css">.st0{fill:none;stroke:#000000;stroke-width:11.3725;stroke-miterlimit:22.9256;}
        .st1{fill-rule:evenodd;clip-rule:evenodd;}
    </style>
    <path class="st0" d="M221.7 342.6h150.4v156.4h-150.4v-156.4z"/>
    <path d="M272.5 480.2v-113.1h35.2c6.2 0 10.9.4 14.2 1.1 4.6.9 8.4 2.7 11.5 5.3 3.1 2.6 5.6 6.2 7.5 10.9 1.9 4.7 2.8 9.8 2.8 15.4 0 9.6-2.5 17.7-7.6 24.3-5 6.7-14.2 10-27.3 10h-23.9v46.1h-12.4zm12.4-59.4h24.1c8 0 13.6-1.8 17-5.4 3.3-3.6 5-8.7 5-15.2 0-4.7-1-8.8-2.9-12.1-2-3.4-4.6-5.6-7.8-6.7-2.1-.7-5.9-1-11.5-1h-23.8v40.4h-.1z"/>
    <path class="st1" d="M294.1 420.8h-37.6v13.3h37.6v-13.3zM308.1 440h-51.6v13.3h51.6v-13.3z"/>
</svg>