<?xml version="1.0" encoding="utf-8"?>
<!-- Generator: Adobe Illustrator 19.2.0, SVG Export Plug-In . SVG Version: 6.00 Build 0)  -->
<svg version="1.1" id="Слой_1" xmlns="http://www.w3.org/2000/svg" xmlns:xlink="http://www.w3.org/1999/xlink" x="0px" y="0px"
	 viewBox="0 0 175 178" style="enable-background:new 0 0 175 178;" xml:space="preserve">
<style type="text/css">
	.st0{stroke:#FEFEFE;stroke-width:8.5033;stroke-miterlimit:22.9256;}
	.st1{stroke:#FEFEFE;stroke-width:4.9048;stroke-miterlimit:22.9256;}
	.st2{fill:none;stroke:#FEFEFE;stroke-width:7.6664;stroke-miterlimit:22.9256;}
	.st3{fill:#FEFEFE;stroke:#FEFEFE;stroke-width:0.216;stroke-miterlimit:22.9256;}
	.st4{fill:none;stroke:#FEFEFE;stroke-width:5.7497;stroke-miterlimit:22.9256;}
</style>
<!-- <path class="st0" d="M85.9,10.1c43.4,0,78.6,35.2,78.6,78.6s-35.2,78.6-78.6,78.6S7.3,132.1,7.3,88.7S42.5,10.1,85.9,10.1z"/> -->
<path class="st1" d="M86.1,67.9c11.2,0,20.3,9.1,20.3,20.3c0,11.2-9.1,20.3-20.3,20.3c-11.2,0-20.3-9.1-20.3-20.3
	C65.8,77,74.9,67.9,86.1,67.9z"/>
<path class="st2" d="M20.1,90.2C41.4,72.8,55.7,60,84.6,60 M149,90.2C127.7,72.8,113.4,60,84.5,60 M20.1,86.9
	c21.3,17.4,35.6,30.2,64.5,30.2 M149,86.9c-21.3,17.4-35.6,30.2-64.5,30.2"/>
<path class="st3" d="M150.3,86.7c1,0,1.8,0.8,1.8,1.8s-0.8,1.8-1.8,1.8s-1.8-0.8-1.8-1.8S149.3,86.7,150.3,86.7z M18.9,86.8
	c1,0,1.8,0.8,1.8,1.8s-0.8,1.8-1.8,1.8s-1.8-0.8-1.8-1.8S17.9,86.8,18.9,86.8z"/>
<path class="st4" d="M77,94.6c-1.7-1.9-2.7-4.4-2.7-6.9c0-5.7,4.6-10.2,10.2-10.2"/>
</svg>
