<svg xmlns="http://www.w3.org/2000/svg" width="595.3" height="841.9" viewBox="0 0 595.3 841.9">
    <style type="text/css">.st0{fill:#434242;} .st1{fill-rule:evenodd;clip-rule:evenodd;fill:#434242;}</style>
    <path class="st0"
          d="M288.3 406.7h17.4c1.1 0 2.1.4 2.8 1.2.7.7 1.2 1.7 1.2 2.8v27c0 1.1-.4 2.1-1.2 2.8-.7.7-1.7 1.2-2.8 1.2h-17.4c-1.1 0-2.1-.4-2.8-1.2-.7-.7-1.2-1.7-1.2-2.8v-27c0-1.1.4-2.1 1.2-2.8.8-.7 1.8-1.2 2.8-1.2zm17.4 1.4h-17.4c-.7 0-1.3.3-1.8.7-.5.5-.7 1.1-.7 1.8v27c0 .7.3 1.3.7 1.8.5.5 1.1.7 1.8.7h17.4c.7 0 1.3-.3 1.8-.7.5-.5.7-1.1.7-1.8v-27c0-.7-.3-1.3-.7-1.8-.4-.4-1.1-.7-1.8-.7zM293.2 401.9h7.3c.5 0 .9.2 1.2.5.3.3.5.7.5 1.2v5.2c0 .5-.2.9-.5 1.2-.3.3-.7.5-1.2.5h-7.3c-.5 0-.9-.2-1.2-.5s-.5-.7-.5-1.2v-5.2c0-.5.2-.9.5-1.2.3-.3.7-.5 1.2-.5zm7.3 1.4h-7.3c-.1 0-.1 0-.2.1 0 0-.1.1-.1.2v5.2c0 .1 0 .1.1.2 0 0 .1.1.2.1h7.3c.1 0 .1 0 .2-.1s.1-.1.1-.2v-5.2c0-.1 0-.1-.1-.2 0-.1-.1-.1-.2-.1z"/>
    <path class="st1" d="M281.7 407.3h30.3v2.5h-30.3v-2.5z"/>
    <path class="st0" d="M281.7 406.6h31v3.9h-31.7v-3.9h.7zm29.6 1.4h-28.9v1.1h28.9v-1.1z"/>
    <path class="st1"
          d="M290.6 435.4v-21.1h1.5v21.1h-1.5zM296.4 435.4v-21.1h1.6v21.1h-1.6zM302.3 435.4v-21.1h1.5v21.1h-1.5z"/>
</svg>