<svg xmlns="http://www.w3.org/2000/svg" width="595.3" height="841.9" viewBox="0 0 595.3 841.9">
    <style type="text/css">
        .st0{fill-rule:evenodd;clip-rule:evenodd;stroke:#FEFEFE;stroke-width:8.5033;stroke-miterlimit:22.9256;}
        .st1{fill-rule:evenodd;clip-rule:evenodd;stroke:#FEFEFE;stroke-width:4.9048;stroke-miterlimit:22.9256;}
        .st2{fill:none;stroke:#FEFEFE;stroke-width:7.6664;stroke-miterlimit:22.9256;}
        .st3{fill-rule:evenodd;clip-rule:evenodd;fill:#FEFEFE;stroke:#FEFEFE;stroke-width:0.216;stroke-miterlimit:22.9256;}
        .st4{fill:none;stroke:#FEFEFE;stroke-width:5.7497;stroke-miterlimit:22.9256;}
    </style>
    <path class="st0"
          d="M297.9 343.1c43.4 0 78.6 35.2 78.6 78.6 0 43.4-35.2 78.6-78.6 78.6-43.4 0-78.6-35.2-78.6-78.6 0-43.4 35.2-78.6 78.6-78.6z"/>
    <path class="st1"
          d="M298.1 400.9c11.2 0 20.3 9.1 20.3 20.3 0 11.2-9.1 20.3-20.3 20.3-11.2 0-20.3-9.1-20.3-20.3 0-11.2 9.1-20.3 20.3-20.3z"/>
    <path class="st2"
          d="M232.1 423.2c21.3-17.4 35.6-30.2 64.5-30.2m64.4 30.2c-21.3-17.4-35.6-30.2-64.5-30.2m-64.4 26.9c21.3 17.4 35.6 30.2 64.5 30.2m64.4-30.2c-21.3 17.4-35.6 30.2-64.5 30.2"/>
    <path class="st3"
          d="M362.3 419.7c1 0 1.8.8 1.8 1.8s-.8 1.8-1.8 1.8-1.8-.8-1.8-1.8.8-1.8 1.8-1.8zM230.9 419.8c1 0 1.8.8 1.8 1.8s-.8 1.8-1.8 1.8-1.8-.8-1.8-1.8.8-1.8 1.8-1.8z"/>
    <path class="st4" d="M289 427.6c-1.7-1.9-2.7-4.4-2.7-6.9 0-5.7 4.6-10.2 10.2-10.2"/>
</svg>