<?xml version="1.0" encoding="UTF-8"?>
<!-- Generator: Adobe Illustrator 24.0.0, SVG Export Plug-In . SVG Version: 6.00 Build 0)  -->
<svg version="1.1" id="Слой_1" xmlns="http://www.w3.org/2000/svg" xmlns:xlink="http://www.w3.org/1999/xlink" x="0px" y="0px" viewBox="0 0 19.125 20.434999" style="enable-background:new 0 0 19.125 20.434999;" xml:space="preserve">
<style type="text/css">
	.st0{enable-background:new    ;}
	.st1{clip-path:url(#SVGID_2_);enable-background:new    ;}
	.st2{fill:#979898;}
	.st3{fill:#929494;}
	.st4{fill:#8E8F8F;}
	.st5{clip-path:url(#SVGID_4_);enable-background:new    ;}
	.st6{fill:#7B7C7C;}
	.st7{fill:#767777;}
	.st8{fill:#8D8E8E;}
	.st9{clip-path:url(#SVGID_6_);enable-background:new    ;}
	.st10{fill:#898A8A;}
	.st11{fill:#848585;}
	.st12{fill:#7F8181;}
	.st13{fill:#CCCECE;}
	.st14{fill:none;stroke:#000000;stroke-width:0.75;stroke-linecap:round;stroke-miterlimit:22.9256;}
	.st15{fill:none;stroke:#000000;stroke-width:0.5;stroke-miterlimit:10;}
	.st16{fill:none;stroke:#000000;stroke-width:0.75;stroke-linecap:round;stroke-linejoin:round;stroke-miterlimit:22.9256;}
	.st17{fill:none;}
</style>
<g>
	<g>
		<g class="st0">
			<g class="st0">
				<defs>
					<path id="SVGID_1_" class="st0" d="M17.757824,1.223364l0.174387,0.174505       c0.683235,0.68364,1.105165,1.628402,1.103893,2.672182l-0.174391-0.174497       C18.862984,2.851773,18.441055,1.907011,17.757824,1.223364z"/>
				</defs>
				<clipPath id="SVGID_2_">
					<use xlink:href="#SVGID_1_" style="overflow:visible;"/>
				</clipPath>
				<g class="st1">
					<path class="st2" d="M17.757824,1.223364l0.174391,0.174497c0.445507,0.445779,0.779915,1.002578,0.958334,1.625459       l-0.174391-0.174497C18.537739,2.225942,18.203331,1.669142,17.757824,1.223364"/>
					<path class="st3" d="M18.716158,2.848822l0.174391,0.174497c0.066324,0.231544,0.111095,0.47222,0.132004,0.719719       l-0.174391-0.174497C18.827251,3.321042,18.782482,3.080367,18.716158,2.848822"/>
					<path class="st4" d="M18.848162,3.568541l0.174391,0.174497c0.009106,0.107774,0.013685,0.216842,0.013552,0.327012       l-0.174391-0.174497C18.861847,3.785383,18.857265,3.676315,18.848162,3.568541"/>
				</g>
			</g>
			<g class="st0">
				<defs>
					<path id="SVGID_3_" class="st0" d="M1.443251,19.213217L1.26885,19.038723       c0.685292,0.685696,1.632939,1.109924,2.678134,1.109924l0.174391,0.174496       C3.07618,20.323143,2.128533,19.898916,1.443251,19.213217z"/>
				</defs>
				<clipPath id="SVGID_4_">
					<use xlink:href="#SVGID_3_" style="overflow:visible;"/>
				</clipPath>
				<g class="st5">
					<path class="st6" d="M3.946984,20.148647l0.174391,0.174496c-1.045195,0-1.992842-0.424227-2.678124-1.109926       L1.26886,19.038719C1.954142,19.724419,2.901789,20.148647,3.946984,20.148647"/>
				</g>
			</g>
			<g>
				<polygon class="st7" points="15.064207,20.148647 15.238599,20.323143 4.121375,20.323143 3.946984,20.148647     "/>
			</g>
			<g>
				<polygon class="st8" points="18.861713,3.895554 19.036104,4.070051 19.020899,16.545446 18.846508,16.370949     "/>
			</g>
			<g class="st0">
				<defs>
					<path id="SVGID_5_" class="st0" d="M18.846508,16.370949l0.174391,0.174498       c-0.002542,2.086729-1.695572,3.777697-3.7823,3.777697l-0.174392-0.174496       C17.150934,20.148647,18.843966,18.457678,18.846508,16.370949z"/>
				</defs>
				<clipPath id="SVGID_6_">
					<use xlink:href="#SVGID_5_" style="overflow:visible;"/>
				</clipPath>
				<g class="st9">
					<path class="st4" d="M18.846508,16.370949l0.174391,0.174498c-0.000113,0.092695-0.003561,0.184608-0.010231,0.275629       l-0.174393-0.174498C18.842947,16.555559,18.846395,16.463644,18.846508,16.370949"/>
					<path class="st10" d="M18.836275,16.646578l0.174393,0.174498c-0.013866,0.189194-0.041655,0.374523-0.082342,0.554968       l-0.174391-0.174498C18.794622,17.021101,18.822411,16.835772,18.836275,16.646578"/>
					<path class="st11" d="M18.753935,17.201546l0.174391,0.174498c-0.042837,0.189981-0.099976,0.374548-0.170221,0.552511       l-0.174391-0.174498C18.653959,17.576094,18.711098,17.391527,18.753935,17.201546"/>
					<path class="st12" d="M18.583714,17.754057l0.174391,0.174498c-0.083323,0.21109-0.185089,0.412889-0.30331,0.603413       l-0.174391-0.174498C18.398624,18.166946,18.500389,17.965147,18.583714,17.754057"/>
					<path class="st6" d="M18.280403,18.35747l0.174391,0.174498c-0.667149,1.075157-1.858318,1.791176-3.216195,1.791176       l-0.174392-0.174496C16.422085,20.148647,17.613255,19.432627,18.280403,18.35747"/>
				</g>
			</g>
			<g>
				<path class="st13" d="M15.088619,0.117857c2.086727,0,3.775637,1.690969,3.773094,3.777696l-0.015205,12.475395      c-0.002542,2.086729-1.695574,3.777699-3.782301,3.777699H3.946984c-2.086728,0-3.784631-1.690969-3.782088-3.777699      L0.1801,3.895554c0.002543-2.086728,1.704568-3.777696,3.791296-3.777696L15.088619,0.117857z"/>
			</g>
		</g>
	</g>
</g>
<path class="st14" d="M5.088027,14.291996 M12.268277,12.81419c0,0,1.543036,1.896043,2.764856,3.443504  c0.094047,0.119112-0.176009,0.328882-0.339323,0.125675c-0.898834-1.1184-2.689452-3.380667-2.689452-3.380667 M12.967724,6.085257  L13.09661,6.27873c2.168075,3.254536-0.147154,7.614985-4.05763,7.642047H9.038963  c-3.73155,0.025824-6.141991-3.933689-4.376012-7.221006c0.036033-0.067074,0.072274-0.13457,0.108722-0.202486  C6.477865,3.318066,10.967331,3.082432,12.967724,6.085257z M11.140341,8.943775H6.811133"/>
<g>
	<path class="st15" d="M3.572699,13.5"/>
	<path class="st15" d="M3.572699,9.8"/>
	<path class="st15" d="M4.486098,16.43"/>
	<path class="st15" d="M12.172439,16.43"/>
	<path class="st15" d="M8.572699,11.5"/>
	<path class="st15" d="M10.272698,11.5"/>
</g>
<path class="st16" d="M8.975737,6.709409v4.329208"/>
<path id="_x3C_Фрагмент_x3E__4_" class="st17" d="M19.325001,0"/>
<path id="_x3C_Фрагмент_x3E__1_" class="st17" d="M19.325001,0"/>
<rect id="_x3C_Фрагмент_x3E_" class="st17" width="19.125" height="20.434999"/>
</svg>