<?xml version="1.0" encoding="UTF-8"?>
<!-- Generator: Adobe Illustrator 24.0.0, SVG Export Plug-In . SVG Version: 6.00 Build 0)  -->
<svg version="1.1" id="Слой_1" xmlns="http://www.w3.org/2000/svg" xmlns:xlink="http://www.w3.org/1999/xlink" x="0px" y="0px" viewBox="0 0 17.4 15.9" style="enable-background:new 0 0 17.4 15.9;" xml:space="preserve">
<style type="text/css">
	.st0{fill:none;stroke:#000000;stroke-width:0.75;stroke-linecap:round;stroke-linejoin:round;stroke-miterlimit:22.9256;}
	.st1{fill:none;stroke:#000000;stroke-width:0.75;stroke-miterlimit:22.9256;}
</style>
<path class="st0" d="M8.8,0.8c2.2,0,3.9,1.8,3.9,3.9s-1.8,3.9-3.9,3.9S4.9,6.9,4.9,4.7S6.6,0.8,8.8,0.8z M4.3,10.1  c0.5-0.5,2.1-1.4,4.5-1.4c3.9,0,7.2,2.7,8,6.6"/>
<line class="st1" x1="1.7" y1="12.8" x2="4.8" y2="12.8"/>
<path class="st1" d="M3.2,14.3v-3.1"/>
<path class="st0" d="M6.8,13.4"/>
<path class="st0" d="M2.9,9.5"/>
<path class="st0" d="M3.2,15.4c-1.4,0-2.6-1.2-2.6-2.6s1.2-2.6,2.6-2.6s2.6,1.2,2.6,2.6S4.7,15.4,3.2,15.4"/>
</svg>