<?xml version="1.0" encoding="utf-8"?>
<!-- Generator: Adobe Illustrator 19.2.0, SVG Export Plug-In . SVG Version: 6.00 Build 0)  -->
<svg version="1.1" id="Слой_1" xmlns="http://www.w3.org/2000/svg" xmlns:xlink="http://www.w3.org/1999/xlink" x="0px" y="0px"
	 viewBox="0 0 16.3 17.5" style="enable-background:new 0 0 16.3 17.5;" xml:space="preserve">
<style type="text/css">
	.st0{fill:none;stroke:#000000;stroke-width:0.75;stroke-miterlimit:22.9256;}
	.st1{stroke:#000000;stroke-width:0.5;stroke-miterlimit:10;}
	.st2{fill:none;stroke:#000000;stroke-width:0.5;stroke-miterlimit:10;}
</style>
<path class="st0" d="M4.4,6.4v-6h7.3l4.2,4.4v12.3H4.4v-3.5 M15.9,4.8h-4.2V0.4 M0.4,6.6h10.4v7H0.4C0.4,13.6,0.4,6.6,0.4,6.6z"/>
<g>
	<line class="st1" x1="2.3" y1="8.3" x2="2.3" y2="12"/>
	<path class="st2" d="M3.1,10.4H2.3V8.3h0.8c0.6,0,1,0.4,1,1v0.1C4.1,10,3.6,10.4,3.1,10.4z"/>
	<path class="st2" d="M5.5,11.7H4.7V8.3h0.8c0.6,0,1,0.4,1,1v1.4C6.5,11.3,6.1,11.7,5.5,11.7z"/>
	<polyline class="st1" points="7.5,8.1 7.5,8.2 7.5,12 	"/>
	<line class="st1" x1="9.2" y1="8.3" x2="7.5" y2="8.3"/>
	<line class="st1" x1="9" y1="10" x2="7.3" y2="10"/>
</g>
</svg>
