<?xml version="1.0" encoding="utf-8"?>
<!-- Generator: Adobe Illustrator 19.2.0, SVG Export Plug-In . SVG Version: 6.00 Build 0)  -->
<svg version="1.1" id="Слой_1" xmlns="http://www.w3.org/2000/svg" xmlns:xlink="http://www.w3.org/1999/xlink" x="0px" y="0px"
	 viewBox="0 0 19.5 20.6" style="enable-background:new 0 0 19.5 20.6;" xml:space="preserve">
<style type="text/css">
	.st0{fill:none;stroke:#000000;stroke-width:0.75;stroke-miterlimit:22.9256;}
</style>
<path class="st0" d="M3.9,13.4c-1.2-1.5-2.6-3.6-3-5.5c-0.2-1-0.4-2.7,1-3.8C2.4,3.7,3,3.6,3.8,4.3c0.9,0.8,1.9,1.9,2,2.6
	c0,0.4,0,0.7-0.5,1.3C4.4,9.3,5,10.3,5.8,11.4c1,1.3,2.8,3.1,4,3.9c0.9,0.6,1.8,0.9,2.8,0.2c0.6-0.5,0.9-0.5,1.3-0.5
	c0.7,0.1,1.8,1.1,2.6,2c0.7,0.8,0.6,1.4,0.2,1.9c-1.1,1.3-2.9,1.1-3.9,0.9c-1.8-0.3-3.6-1.6-5.1-2.6C6.2,16,5.1,14.9,3.9,13.4z
	 M8.2,4.8c3.8,0.6,6.6,3.9,6.6,7.7 M8.2,0.6C14.3,1.2,19,6.4,19,12.6"/>
</svg>
