<?xml version="1.0" encoding="utf-8"?>
<!-- Generator: Adobe Illustrator 19.2.0, SVG Export Plug-In . SVG Version: 6.00 Build 0)  -->
<svg version="1.1" id="Слой_1" xmlns="http://www.w3.org/2000/svg" xmlns:xlink="http://www.w3.org/1999/xlink" x="0px" y="0px"
	 viewBox="0 0 14 16.5" style="enable-background:new 0 0 14 16.5;" xml:space="preserve">
<style type="text/css">
	.st0{fill:none;stroke:#000000;stroke-width:0.75;stroke-linecap:round;stroke-linejoin:round;stroke-miterlimit:22.9256;}
</style>
<path class="st0" d="M2,5.9h9.9v8.6c0,0.9-0.7,1.6-1.6,1.6H3.6c-0.9,0-1.6-0.7-1.6-1.6C2,14.5,2,5.9,2,5.9z M1.3,2.7h11.4
	c0.4,0,0.8,0.4,0.8,0.8v1.6c0,0.4-0.4,0.8-0.8,0.8H1.3c-0.5,0-0.8-0.4-0.8-0.8V3.5C0.5,3.1,0.8,2.7,1.3,2.7z M5,2.7h4.3V1.6
	c0-0.6-0.5-1.1-1.1-1.1H6.1C5.5,0.5,5,1,5,1.6C5,1.6,5,2.7,5,2.7z M5,8v5.9 M7,8v5.9 M9,8v5.9"/>
</svg>
