{"asset":{"version":"2.0","generator":"babylon.js glTF exporter for 3ds max 2015 v1.2.16","copyright":"2017 (c) BabylonJS"},"extensionsUsed":["KHR_lights"],"scene":0,"scenes":[{"nodes":[0,1],"extensions":{"KHR_lights":{"light":0}}}],"nodes":[{"mesh":0,"translation":[0.0,0.0,0.0],"rotation":[0.0,0.0,0.0,1.0],"scale":[1.0,1.0,1.0],"name":"button"},{"mesh":1,"translation":[0.0,0.0,0.0],"rotation":[0.0,0.0,0.0,1.0],"scale":[1.0,1.0,1.0],"name":"base"}],"meshes":[{"primitives":[{"attributes":{"POSITION":1,"TANGENT":2,"NORMAL":3,"TEXCOORD_0":4},"indices":0,"mode":4,"material":0}],"name":"button"},{"primitives":[{"attributes":{"POSITION":6,"TANGENT":7,"NORMAL":8,"TEXCOORD_0":9,"TEXCOORD_1":10},"indices":5,"mode":4,"material":0}],"name":"base"}],"accessors":[{"bufferView":0,"componentType":5123,"count":13644,"type":"SCALAR","name":"accessorIndices"},{"bufferView":1,"componentType":5126,"count":13644,"max":[27.4096031,94.55216,0.4743217],"min":[-27.84772,93.42563,-0.411489964],"type":"VEC3","name":"accessorPositions"},{"bufferView":2,"componentType":5126,"count":13644,"type":"VEC4","name":"accessorTangents"},{"bufferView":1,"byteOffset":163728,"componentType":5126,"count":13644,"type":"VEC3","name":"accessorNormals"},{"bufferView":3,"componentType":5126,"count":13644,"type":"VEC2","name":"accessorUVs"},{"bufferView":0,"byteOffset":27288,"componentType":5123,"count":3162,"type":"SCALAR","name":"accessorIndices"},{"bufferView":1,"byteOffset":327456,"componentType":5126,"count":3162,"max":[28.7998962,99.3177,9.030792],"min":[-29.3658142,89.5088348,-1.15595126],"type":"VEC3","name":"accessorPositions"},{"bufferView":2,"byteOffset":218304,"componentType":5126,"count":3162,"type":"VEC4","name":"accessorTangents"},{"bufferView":1,"byteOffset":365400,"componentType":5126,"count":3162,"type":"VEC3","name":"accessorNormals"},{"bufferView":3,"byteOffset":109152,"componentType":5126,"count":3162,"type":"VEC2","name":"accessorUVs"},{"bufferView":3,"byteOffset":134448,"componentType":5126,"count":3162,"type":"VEC2","name":"accessorUV2s"}],"bufferViews":[{"buffer":0,"byteLength":33612,"name":"bufferViewScalar"},{"buffer":0,"byteOffset":33612,"byteLength":403344,"byteStride":12,"name":"bufferViewFloatVec3"},{"buffer":0,"byteOffset":436956,"byteLength":268896,"byteStride":16,"name":"bufferViewFloatVec4"},{"buffer":0,"byteOffset":705852,"byteLength":159744,"byteStride":8,"name":"bufferViewFloatVec2"}],"buffers":[{"uri":"cfs1.bin","byteLength":865596}],"materials":[{"pbrMetallicRoughness":{"baseColorFactor":[0.6125001,0.6125001,0.6125001,1.0],"metallicFactor":0.0,"roughnessFactor":0.9},"emissiveFactor":[0.0,0.0,0.0],"alphaMode":"OPAQUE","name":"material"}],"extensions":{"KHR_lights":{"lights":[{"color":[1.0,1.0,1.0],"intensity":1.0,"type":"ambient"}]}}}