{"asset":{"version":"2.0","generator":"babylon.js glTF exporter for 3ds max 2015 v1.2.16","copyright":"2017 (c) BabylonJS"},"extensionsUsed":["KHR_lights"],"scene":0,"scenes":[{"nodes":[0,1,2,3,4,5,6],"extensions":{"KHR_lights":{"light":0}}}],"nodes":[{"translation":[-0.01617534,88.31232,-2.63333344],"rotation":[8.881784E-16,-5.960465E-08,-7.450602E-09,1.0],"scale":[1.0,0.9999997,0.999999642],"name":"Camera001.Target"},{"translation":[23.0435886,113.503693,9.4189],"rotation":[0.0,0.0,0.0,1.0],"scale":[1.0,1.0,1.0],"name":"TPhotometricLight001.Target"},{"translation":[-24.7600327,124.6373,-36.95394],"rotation":[0.0,0.0,0.0,1.0],"scale":[1.0,1.0,1.0],"name":"TPhotometricLight002.Target"},{"translation":[25.5021267,5.01596069,-10.5832138],"rotation":[0.0,0.0,0.0,1.0],"scale":[1.0,1.0,1.0],"name":"TPhotometricLight003.Target"},{"translation":[38.4104347,55.95497,-10.8562489],"rotation":[0.0,0.0,0.0,1.0],"scale":[1.0,1.0,1.0],"name":"TPhotometricLight004.Target"},{"translation":[-10.3994846,131.700851,17.3462677],"rotation":[0.0,0.0,0.0,1.0],"scale":[1.0,1.0,1.0],"name":"TPhotometricLight005.Target"},{"mesh":0,"translation":[0.0,0.0,0.0],"rotation":[0.0,0.0,0.0,1.0],"scale":[1.0,1.0,1.0],"name":"body"}],"meshes":[{"primitives":[{"attributes":{"POSITION":1,"NORMAL":2,"TEXCOORD_0":3},"indices":0,"mode":4,"material":0}],"name":"body"}],"accessors":[{"bufferView":0,"componentType":5123,"count":29862,"type":"SCALAR","name":"accessorIndices"},{"bufferView":1,"componentType":5126,"count":29862,"max":[58.5387726,156.4201,8.584721],"min":[-58.5387726,87.96993,-14.9172935],"type":"VEC3","name":"accessorPositions"},{"bufferView":1,"byteOffset":358344,"componentType":5126,"count":29862,"type":"VEC3","name":"accessorNormals"},{"bufferView":2,"componentType":5126,"count":29862,"type":"VEC2","name":"accessorUVs"}],"bufferViews":[{"buffer":0,"byteLength":59724,"name":"bufferViewScalar"},{"buffer":0,"byteOffset":59724,"byteLength":716688,"byteStride":12,"name":"bufferViewFloatVec3"},{"buffer":0,"byteOffset":776412,"byteLength":238896,"byteStride":8,"name":"bufferViewFloatVec2"}],"buffers":[{"uri":"body.bin","byteLength":1015308}],"materials":[{"pbrMetallicRoughness":{"baseColorFactor":[0.261437953,0.261437953,0.261437953,1.0],"metallicFactor":0.0,"roughnessFactor":0.9},"emissiveFactor":[0.0,0.0,0.0],"alphaMode":"OPAQUE","name":"Material"}],"extensions":{"KHR_lights":{"lights":[{"color":[1.0,1.0,1.0],"intensity":1.0,"type":"ambient"}]}}}