{"asset":{"version":"2.0","generator":"babylon.js glTF exporter for 3ds max 2015 v1.2.16","copyright":"2017 (c) BabylonJS"},"extensionsUsed":["KHR_lights"],"scene":0,"scenes":[{"nodes":[0,1,2,3,4,5,6],"extensions":{"KHR_lights":{"light":0}}}],"nodes":[{"translation":[-0.01617534,88.31232,-2.63333344],"rotation":[8.881784E-16,-5.960465E-08,-7.450602E-09,1.0],"scale":[1.0,0.9999997,0.999999642],"name":"Camera001.Target"},{"translation":[23.0435886,113.503693,9.4189],"rotation":[0.0,0.0,0.0,1.0],"scale":[1.0,1.0,1.0],"name":"TPhotometricLight001.Target"},{"translation":[-24.7600327,124.6373,-36.95394],"rotation":[0.0,0.0,0.0,1.0],"scale":[1.0,1.0,1.0],"name":"TPhotometricLight002.Target"},{"translation":[25.5021267,5.01596069,-10.5832138],"rotation":[0.0,0.0,0.0,1.0],"scale":[1.0,1.0,1.0],"name":"TPhotometricLight003.Target"},{"translation":[38.4104347,55.95497,-10.8562489],"rotation":[0.0,0.0,0.0,1.0],"scale":[1.0,1.0,1.0],"name":"TPhotometricLight004.Target"},{"translation":[-10.3994846,131.700851,17.3462677],"rotation":[0.0,0.0,0.0,1.0],"scale":[1.0,1.0,1.0],"name":"TPhotometricLight005.Target"},{"mesh":0,"translation":[-2.213211,2.2322998,-20.9042511],"rotation":[0.0617956221,-0.00123249332,-0.007093631,0.998062849],"scale":[1.0,1.00000012,1.0],"name":"eyelash"}],"meshes":[{"primitives":[{"attributes":{"POSITION":1,"NORMAL":2,"TEXCOORD_0":3},"indices":0,"mode":4,"material":0}],"name":"eyelash"}],"accessors":[{"bufferView":0,"componentType":5123,"count":576,"type":"SCALAR","name":"accessorIndices"},{"bufferView":1,"componentType":5126,"count":576,"max":[5.35607624,170.020966,7.875473],"min":[-5.35607672,168.2572,5.66622639],"type":"VEC3","name":"accessorPositions"},{"bufferView":1,"byteOffset":6912,"componentType":5126,"count":576,"type":"VEC3","name":"accessorNormals"},{"bufferView":2,"componentType":5126,"count":576,"type":"VEC2","name":"accessorUVs"}],"bufferViews":[{"buffer":0,"byteLength":1152,"name":"bufferViewScalar"},{"buffer":0,"byteOffset":1152,"byteLength":13824,"byteStride":12,"name":"bufferViewFloatVec3"},{"buffer":0,"byteOffset":14976,"byteLength":4608,"byteStride":8,"name":"bufferViewFloatVec2"}],"buffers":[{"uri":"eyelash.bin","byteLength":19584}],"materials":[{"pbrMetallicRoughness":{"baseColorFactor":[0.261437953,0.261437953,0.261437953,1.0],"metallicFactor":0.0,"roughnessFactor":0.9},"emissiveFactor":[0.0,0.0,0.0],"alphaMode":"OPAQUE","name":"Material"}],"extensions":{"KHR_lights":{"lights":[{"color":[1.0,1.0,1.0],"intensity":1.0,"type":"ambient"}]}}}