{"asset":{"version":"2.0","generator":"babylon.js glTF exporter for 3ds max 2015 v1.2.16","copyright":"2017 (c) BabylonJS"},"extensionsUsed":["KHR_lights"],"scene":0,"scenes":[{"nodes":[0,1],"extensions":{"KHR_lights":{"light":0}}}],"nodes":[{"mesh":0,"translation":[6.68936872,3.11060143,11.5846415],"rotation":[-4.371139E-08,-4.371139E-08,4.371139E-08,1.0],"scale":[1.0,1.0,1.0],"name":"button"},{"mesh":1,"translation":[0.0,0.0,0.0],"rotation":[0.0,0.0,0.0,1.0],"scale":[1.0,1.0,1.0],"name":"base"}],"meshes":[{"primitives":[{"attributes":{"POSITION":1,"TANGENT":2,"NORMAL":3,"TEXCOORD_0":4},"indices":0,"mode":4,"material":0}],"name":"button"},{"primitives":[{"attributes":{"POSITION":6,"TANGENT":7,"NORMAL":8,"TEXCOORD_0":9,"TEXCOORD_1":10},"indices":5,"mode":4,"material":1}],"name":"base"}],"accessors":[{"bufferView":0,"componentType":5123,"count":7260,"type":"SCALAR","name":"accessorIndices"},{"bufferView":1,"componentType":5126,"count":7260,"max":[20.76057,97.9592,-14.5582342],"min":[-34.32797,97.21538,-15.3481131],"type":"VEC3","name":"accessorPositions"},{"bufferView":2,"componentType":5126,"count":7260,"type":"VEC4","name":"accessorTangents"},{"bufferView":1,"byteOffset":87120,"componentType":5126,"count":7260,"type":"VEC3","name":"accessorNormals"},{"bufferView":3,"componentType":5126,"count":7260,"type":"VEC2","name":"accessorUVs"},{"bufferView":0,"byteOffset":14520,"componentType":5123,"count":23826,"type":"SCALAR","name":"accessorIndices"},{"bufferView":1,"byteOffset":174240,"componentType":5126,"count":23826,"max":[29.5621529,147.682266,6.07069635],"min":[-30.22715,95.7298355,-14.293602],"type":"VEC3","name":"accessorPositions"},{"bufferView":2,"byteOffset":116160,"componentType":5126,"count":23826,"type":"VEC4","name":"accessorTangents"},{"bufferView":1,"byteOffset":460152,"componentType":5126,"count":23826,"type":"VEC3","name":"accessorNormals"},{"bufferView":3,"byteOffset":58080,"componentType":5126,"count":23826,"type":"VEC2","name":"accessorUVs"},{"bufferView":3,"byteOffset":248688,"componentType":5126,"count":23826,"type":"VEC2","name":"accessorUV2s"}],"bufferViews":[{"buffer":0,"byteLength":62172,"name":"bufferViewScalar"},{"buffer":0,"byteOffset":62172,"byteLength":746064,"byteStride":12,"name":"bufferViewFloatVec3"},{"buffer":0,"byteOffset":808236,"byteLength":497376,"byteStride":16,"name":"bufferViewFloatVec4"},{"buffer":0,"byteOffset":1305612,"byteLength":439296,"byteStride":8,"name":"bufferViewFloatVec2"}],"buffers":[{"uri":"slv1.bin","byteLength":1744908}],"materials":[{"pbrMetallicRoughness":{"baseColorFactor":[0.6125001,0.6125001,0.6125001,1.0],"metallicFactor":0.0,"roughnessFactor":0.9},"emissiveFactor":[0.0,0.0,0.0],"alphaMode":"OPAQUE","name":"material"},{"pbrMetallicRoughness":{"baseColorFactor":[0.273692846,0.273692846,0.273692846,1.0],"metallicFactor":0.0,"roughnessFactor":0.9},"emissiveFactor":[0.0,0.0,0.0],"alphaMode":"OPAQUE","name":"03 - Default"}],"extensions":{"KHR_lights":{"lights":[{"color":[1.0,1.0,1.0],"intensity":1.0,"type":"ambient"}]}}}