{"asset":{"version":"2.0","generator":"babylon.js glTF exporter for 3ds max 2015 v1.2.16","copyright":"2017 (c) BabylonJS"},"extensionsUsed":["KHR_lights"],"scene":0,"scenes":[{"nodes":[0],"extensions":{"KHR_lights":{"light":0}}}],"nodes":[{"mesh":0,"translation":[0.0,0.0,0.0],"rotation":[0.0,0.0,0.0,1.0],"scale":[1.0,1.0,1.0],"name":"base"}],"meshes":[{"primitives":[{"attributes":{"POSITION":1,"TANGENT":2,"NORMAL":3,"TEXCOORD_0":4,"TEXCOORD_1":5},"indices":0,"mode":4,"material":0}],"name":"base"}],"accessors":[{"bufferView":0,"componentType":5123,"count":816,"type":"SCALAR","name":"accessorIndices"},{"bufferView":1,"componentType":5126,"count":816,"max":[10.2535725,138.51976,9.964144],"min":[3.088327,130.092224,7.131197],"type":"VEC3","name":"accessorPositions"},{"bufferView":2,"componentType":5126,"count":816,"type":"VEC4","name":"accessorTangents"},{"bufferView":1,"byteOffset":9792,"componentType":5126,"count":816,"type":"VEC3","name":"accessorNormals"},{"bufferView":3,"componentType":5126,"count":816,"type":"VEC2","name":"accessorUVs"},{"bufferView":3,"byteOffset":6528,"componentType":5126,"count":816,"type":"VEC2","name":"accessorUV2s"}],"bufferViews":[{"buffer":0,"byteLength":1632,"name":"bufferViewScalar"},{"buffer":0,"byteOffset":1632,"byteLength":19584,"byteStride":12,"name":"bufferViewFloatVec3"},{"buffer":0,"byteOffset":21216,"byteLength":13056,"byteStride":16,"name":"bufferViewFloatVec4"},{"buffer":0,"byteOffset":34272,"byteLength":13056,"byteStride":8,"name":"bufferViewFloatVec2"}],"buffers":[{"uri":"pkt2.bin","byteLength":47328}],"materials":[{"pbrMetallicRoughness":{"baseColorFactor":[0.6125001,0.6125001,0.6125001,1.0],"metallicFactor":0.0,"roughnessFactor":0.9},"emissiveFactor":[0.0,0.0,0.0],"alphaMode":"OPAQUE","name":"material"}],"extensions":{"KHR_lights":{"lights":[{"color":[1.0,1.0,1.0],"intensity":1.0,"type":"ambient"}]}}}