{"asset":{"version":"2.0","generator":"babylon.js glTF exporter for 3ds max 2015 v1.2.16","copyright":"2017 (c) BabylonJS"},"extensionsUsed":["KHR_lights"],"scene":0,"scenes":[{"nodes":[0,1],"extensions":{"KHR_lights":{"light":0}}}],"nodes":[{"mesh":0,"translation":[0.0,0.0,0.0],"rotation":[0.0,0.0,0.0,1.0],"scale":[1.0,1.0,1.0],"name":"base"},{"mesh":1,"translation":[6.79992962,135.761856,8.664163],"rotation":[0.0,0.0,0.0,1.0],"scale":[1.0,1.0,1.0],"name":"button"}],"meshes":[{"primitives":[{"attributes":{"POSITION":1,"TANGENT":2,"NORMAL":3,"TEXCOORD_0":4,"TEXCOORD_1":5},"indices":0,"mode":4,"material":0}],"name":"base"},{"primitives":[{"attributes":{"POSITION":7,"TANGENT":8,"NORMAL":9,"TEXCOORD_0":10},"indices":6,"mode":4,"material":0}],"name":"button"}],"accessors":[{"bufferView":0,"componentType":5123,"count":1494,"type":"SCALAR","name":"accessorIndices"},{"bufferView":1,"componentType":5126,"count":1494,"max":[10.2942181,138.2956,9.945963],"min":[3.20061731,129.554047,7.155838],"type":"VEC3","name":"accessorPositions"},{"bufferView":2,"componentType":5126,"count":1494,"type":"VEC4","name":"accessorTangents"},{"bufferView":1,"byteOffset":17928,"componentType":5126,"count":1494,"type":"VEC3","name":"accessorNormals"},{"bufferView":3,"componentType":5126,"count":1494,"type":"VEC2","name":"accessorUVs"},{"bufferView":3,"byteOffset":11952,"componentType":5126,"count":1494,"type":"VEC2","name":"accessorUV2s"},{"bufferView":0,"byteOffset":2988,"componentType":5123,"count":3630,"type":"SCALAR","name":"accessorIndices"},{"bufferView":1,"byteOffset":35856,"componentType":5126,"count":3630,"max":[0.309206963,0.430084229,0.13904953],"min":[-0.296926975,-0.299591064,-0.129702568],"type":"VEC3","name":"accessorPositions"},{"bufferView":2,"byteOffset":23904,"componentType":5126,"count":3630,"type":"VEC4","name":"accessorTangents"},{"bufferView":1,"byteOffset":79416,"componentType":5126,"count":3630,"type":"VEC3","name":"accessorNormals"},{"bufferView":3,"byteOffset":23904,"componentType":5126,"count":3630,"type":"VEC2","name":"accessorUVs"}],"bufferViews":[{"buffer":0,"byteLength":10248,"name":"bufferViewScalar"},{"buffer":0,"byteOffset":10248,"byteLength":122976,"byteStride":12,"name":"bufferViewFloatVec3"},{"buffer":0,"byteOffset":133224,"byteLength":81984,"byteStride":16,"name":"bufferViewFloatVec4"},{"buffer":0,"byteOffset":215208,"byteLength":52944,"byteStride":8,"name":"bufferViewFloatVec2"}],"buffers":[{"uri":"pkt6.bin","byteLength":268152}],"materials":[{"pbrMetallicRoughness":{"baseColorFactor":[0.6125001,0.6125001,0.6125001,1.0],"metallicFactor":0.0,"roughnessFactor":0.9},"emissiveFactor":[0.0,0.0,0.0],"alphaMode":"OPAQUE","name":"_f002wire_868686"}],"extensions":{"KHR_lights":{"lights":[{"color":[1.0,1.0,1.0],"intensity":1.0,"type":"ambient"}]}}}