{"asset":{"version":"2.0","generator":"babylon.js glTF exporter for 3ds max 2015 v1.2.16","copyright":"2017 (c) BabylonJS"},"extensionsUsed":["KHR_lights"],"scene":0,"scenes":[{"nodes":[0],"extensions":{"KHR_lights":{"light":0}}}],"nodes":[{"mesh":0,"translation":[0.0,0.0,0.0],"rotation":[0.0,0.0,0.0,1.0],"scale":[1.0,1.0,1.0],"name":"base"}],"meshes":[{"primitives":[{"attributes":{"POSITION":1,"TANGENT":2,"NORMAL":3,"TEXCOORD_0":4,"TEXCOORD_1":5},"indices":0,"mode":4,"material":0}],"name":"base"}],"accessors":[{"bufferView":0,"componentType":5123,"count":3006,"type":"SCALAR","name":"accessorIndices"},{"bufferView":1,"componentType":5126,"count":3006,"max":[21.03286,156.665955,-4.503512],"min":[-21.13885,143.562042,-15.3666115],"type":"VEC3","name":"accessorPositions"},{"bufferView":2,"componentType":5126,"count":3006,"type":"VEC4","name":"accessorTangents"},{"bufferView":1,"byteOffset":36072,"componentType":5126,"count":3006,"type":"VEC3","name":"accessorNormals"},{"bufferView":3,"componentType":5126,"count":3006,"type":"VEC2","name":"accessorUVs"},{"bufferView":3,"byteOffset":24048,"componentType":5126,"count":3006,"type":"VEC2","name":"accessorUV2s"}],"bufferViews":[{"buffer":0,"byteLength":6012,"name":"bufferViewScalar"},{"buffer":0,"byteOffset":6012,"byteLength":72144,"byteStride":12,"name":"bufferViewFloatVec3"},{"buffer":0,"byteOffset":78156,"byteLength":48096,"byteStride":16,"name":"bufferViewFloatVec4"},{"buffer":0,"byteOffset":126252,"byteLength":48096,"byteStride":8,"name":"bufferViewFloatVec2"}],"buffers":[{"uri":"yke1.bin","byteLength":174348}],"materials":[{"pbrMetallicRoughness":{"baseColorFactor":[0.6125001,0.6125001,0.6125001,1.0],"metallicFactor":0.0,"roughnessFactor":0.9},"emissiveFactor":[0.0,0.0,0.0],"alphaMode":"OPAQUE","name":"materisl"}],"extensions":{"KHR_lights":{"lights":[{"color":[1.0,1.0,1.0],"intensity":1.0,"type":"ambient"}]}}}