<?xml version="1.0" encoding="utf-8"?>
<!-- Generator: Adobe Illustrator 19.2.0, SVG Export Plug-In . SVG Version: 6.00 Build 0)  -->
<svg version="1.1" id="Слой_1" xmlns="http://www.w3.org/2000/svg" xmlns:xlink="http://www.w3.org/1999/xlink" x="0px" y="0px"
	 viewBox="0 0 2613.9 464.6" style="enable-background:new 0 0 2613.9 464.6;" xml:space="preserve">
<style type="text/css">
	.st0{fill:#FEFEFE;fill-opacity:0.8;}
	.st1{fill:#FEFEFE;fill-opacity:0.4;}
</style>
<g id="Слой_x0020_1">
	<g id="_111548173808">
		<path class="st0" d="M205,236H16.7v222.1H0V6.5h205v16.8H16.7v195.3H205V236L205,236z M565,323.2H376l-50.6,134.9h-18.2L475.8,6.5
			h20.5L565,190V239L495.7,53.7L487,27.3h-1.9l-8.4,26.4l-94.5,252.7H565V323.2z M966.9,269.7c-19.8-9.6-44.8-19.4-75.2-29.4
			c-50.8-15.5-88.3-31.9-112.4-49.2c-24-17.5-36.1-43.2-36.1-77.3c0-33.9,14.1-61.4,42.3-82.4C813.7,10.5,849.6,0,893,0
			c28.1,0,52.7,4.5,73.9,13.4V34c-20.8-11.5-45.5-17.3-73.9-17.3c-40.8,0-73,9.5-97.1,28.7c-24,19.2-36,41.7-36,67.7
			c0,26,9.6,47.2,29,63.4c19.4,16.3,55.4,32.2,108.1,47.6c26.9,8.4,50.2,17.1,69.9,25.9L966.9,269.7L966.9,269.7z M966.9,453
			c-21.3,7.7-45.2,11.5-71.7,11.6c-45.3-0.1-84.3-10.7-117-31.9c-32.7-21.2-48.5-54.5-47.4-100l0.6-1.8h13.9
			c0,41,15.1,70.6,45.3,89.1c30.2,18.5,65,27.7,104.6,27.7c27.1,0,51-4.3,71.7-12.9L966.9,453L966.9,453z M1493.8,458.1h-16.7V283.6
			h16.7V458.1z M1188.6,283.6v174.5h-16.7V283.6H1188.6z M1171.9,181.1V6.5h16.7v174.6H1171.9z M1477.1,181.1V6.5h16.7v174.6H1477.1
			z M1674.4,458.1h-16.7V283.6h16.7V458.1z M1657.7,181.1V6.5h16.7v174.6H1657.7z M2157.9,266c0,61.1-15,109.4-45.2,145
			c-19.5,23.1-43.8,38.7-72.9,46.8v-17.3c24.8-7.7,45.4-21.5,61.6-41.6c26.5-32.6,39.7-76.8,39.7-133v-68.2
			c0-55.4-13.3-99.4-40-132.1c-16.3-19.9-36.7-33.8-61.3-41.6V6.9c28.8,8.2,53,23.8,72.6,46.8c30.4,35.8,45.5,84.1,45.5,144.8V266
			L2157.9,266z M1929.8,456c-26.4-8.6-48.8-23.5-67-45c-30.3-35.7-45.4-84-45.4-145v-67.5c0-60.8,15-109,45.1-144.8
			c18.2-21.7,40.6-36.8,67.3-45.3V26c-22.1,8-40.7,21.3-55.6,39.8c-26.5,32.7-39.7,76.7-39.7,132.1V266
			c0,55.9,13.2,100.1,39.8,132.7c14.9,18.4,33.4,31.6,55.5,39.6L1929.8,456L1929.8,456z M2613.9,458.1h-16.7L2477,283.6h19.9
			l98.4,142.5l1.9-0.6V283.6h16.7L2613.9,458.1L2613.9,458.1z M2406.4,181.1l-98.9-143.6l-1.9,0.6v143h-17V6.5h17l120.5,174.6
			H2406.4L2406.4,181.1z M2305.6,283.6v174.5h-17V283.6H2305.6z M2597.2,181.1V6.5h16.7v174.6H2597.2z"/>
		<path class="st1" d="M238.8,236H205v-17.4h33.8L238.8,236L238.8,236z M205,6.5h65.4v16.8H205V6.5z M2288.6,181.1h17v102.5h-17
			V181.1z M2406.4,181.1h19.7l70.7,102.5H2477L2406.4,181.1z M2597.2,181.1h16.7v102.5h-16.7V181.1z M1171.9,181.1h16.7v44.7h288.5
			v-44.7h16.7v102.5h-16.7v-41h-288.5v41h-16.7V181.1z M1657.7,181.1h16.7v102.5h-16.7V181.1z M966.9,13.4V34
			c8.1,4.5,15.6,9.8,22.5,16c24.9,22.1,37.3,50,37.3,83.6h14.2l0.6-1.8c0.8-41.6-12.4-73.9-39.8-97.1
			C991.4,26,979.8,18.9,966.9,13.4z M966.9,250.1v19.5c13.5,6.6,24.6,13.1,33.2,19.5c21.2,15.8,31.8,36.6,31.8,62.5
			c0,27.5-12.9,50.4-38.7,68.7c-8.1,5.7-16.8,10.6-26.2,14.5V453c13.6-4.9,26.2-11.4,37.8-19.4c29.5-20.7,44.4-48.3,44.4-82.6
			c0-33.7-12.6-59.2-37.6-76.5C999.6,266.2,984.8,258.1,966.9,250.1z M2039.8,457.9v-17.3c-15.6,4.8-32.9,7.2-51.8,7.2
			c-21.6,0-40.9-3.1-58.2-9.4V456c17.6,5.7,37,8.5,58.2,8.6C2006.7,464.6,2024,462.3,2039.8,457.9z M2039.8,24.2V6.9
			c-16.1-4.6-33.5-6.9-52.5-6.9c-21,0-40.2,2.8-57.5,8.4V26c17-6.2,36.2-9.3,57.5-9.3C2006.6,16.7,2024.1,19.2,2039.8,24.2z
			 M565,190V239l25.2,67.4H565v16.8h31.5l50.6,134.9h18.2L565,190L565,190z"/>
	</g>
</g>
</svg>
