<?xml version="1.0" encoding="utf-8"?>
<!-- Generator: Adobe Illustrator 19.2.0, SVG Export Plug-In . SVG Version: 6.00 Build 0)  -->
<svg version="1.1" id="Слой_1" xmlns="http://www.w3.org/2000/svg" xmlns:xlink="http://www.w3.org/1999/xlink" x="0px" y="0px"
	 viewBox="0 0 1375.7 464.6" style="enable-background:new 0 0 1375.7 464.6;" xml:space="preserve">
<style type="text/css">
	.st0{fill:#FEFEFE;fill-opacity:0.4;}
	.st1{fill:#FEFEFE;fill-opacity:0.8;}
</style>
<g id="Слой_x0020_1">
	<g id="_111548174544">
		<path class="st0" d="M301.1,351.7c0-25.8-10.6-46.7-31.8-62.5c-21.2-15.9-57.3-32.1-108.4-48.9c-22.7-6.9-42.7-14-60.1-21.3v-17.8
			c17.8,7.8,39.6,15.4,65.4,23c51.2,16.1,89.5,32.9,114.4,50.3c25,17.4,37.6,42.9,37.6,76.5c0,34.3-14.8,61.8-44.4,82.6
			c-29.6,20.6-66.1,30.9-109.5,31c-22.8-0.1-44-2.8-63.6-8.1v-17.8c19.6,6.1,40.8,9.2,63.6,9.2c39.5,0,72.1-9.1,97.9-27.4
			C288.2,402.1,301.1,379.2,301.1,351.7L301.1,351.7z M100.9,8.4C119.3,2.8,139.7,0,162.2,0c45.1,0,81.3,11.5,108.7,34.7
			s40.7,55.5,39.8,97.1l-0.6,1.8h-14.2c0-33.7-12.4-61.5-37.3-83.6c-24.8-22.1-57-33.2-96.4-33.2c-23.2,0-43.6,3.1-61.4,9.3
			L100.9,8.4L100.9,8.4z M745,6.5v89.8h-16.7V6.5L745,6.5L745,6.5z M745,232.3v74c0,49.7-14.4,88.4-43.1,116.3
			c-28.8,27.9-65.7,41.8-111.1,41.9c-24.1-0.1-45.7-4-65.1-11.8v-19.3c19.1,9.5,40.8,14.3,65.1,14.3c39.7,0,72.5-12.8,98.5-38.5
			c25.9-25.8,39-60,39-102.9v-74H745z M920.9,458.1h-16.7V232.3h16.7V458.1z M904.2,96.2V6.5h16.7v89.8H904.2z M1375.7,23.3h-158.2
			v434.8h-16.7V23.3H1127V6.5h248.7L1375.7,23.3L1375.7,23.3z"/>
		<path class="st1" d="M100.9,219c-21.5-9-39-18.3-52.3-27.9c-24-17.5-36.1-43.2-36.1-77.3c0-33.9,14.1-61.4,42.3-82.4
			c13.6-10.1,28.9-17.8,46.1-23V26c-13.4,4.7-25.3,11.2-35.7,19.4c-24,19.2-36,41.7-36,67.7c0,26,9.6,47.2,29,63.4
			c9.9,8.3,24.1,16.5,42.7,24.6L100.9,219L100.9,219z M100.9,456.5c-19.3-5.3-37.1-13.2-53.4-23.7C14.8,411.6-1,378.2,0.1,332.7
			l0.6-1.8h13.9c0,41,15.1,70.6,45.3,89.1c12.8,7.9,26.5,14.1,41,18.6L100.9,456.5L100.9,456.5z M1127,6.5v16.8h-95.6V6.5H1127z
			 M728.3,96.2H745v136.1h-16.7V96.2z M904.2,96.2h16.7v136.1h-16.7V96.2z M525.8,433.5v19.3c-17.3-7-32.7-17-46.3-30.2
			c-28.7-28.1-43.1-66.8-43.1-116.2V6.5h16.7v299.9c0,42.9,13,77.1,39,102.9C502.3,419.3,513.5,427.4,525.8,433.5L525.8,433.5z"/>
	</g>
</g>
</svg>
