<?xml version="1.0" encoding="utf-8"?>
<!-- Generator: Adobe Illustrator 19.2.0, SVG Export Plug-In . SVG Version: 6.00 Build 0)  -->
<svg version="1.1" id="Слой_1" xmlns="http://www.w3.org/2000/svg" xmlns:xlink="http://www.w3.org/1999/xlink" x="0px" y="0px"
	 viewBox="0 0 2012.9 464.6" style="enable-background:new 0 0 2012.9 464.6;" xml:space="preserve">
<style type="text/css">
	.st0{fill:#FEFEFE;fill-opacity:0.8;}
	.st1{fill:#FEFEFE;fill-opacity:0.4;}
</style>
<g id="Слой_x0020_1">
	<g id="_111548156592">
		<path class="st0" d="M312.3,207.7L401.6,6.5h18.9v451.6h-16.8V47.7l-1.8-0.3l-89.6,201.1V207.7L312.3,207.7z M117.4,260L18.6,38.4
			l-1.9,0.3v419.3H0V6.5h23.3l94.1,212.7V260L117.4,260z M805.9,231h-51.1v-16.7h51.1V231z M657.3,231h-68.5v210.4h68.5v16.7H572
			V6.5h85.3v16.8h-68.5v191h68.5V231L657.3,231z M754.8,441.3h82.7v16.7h-82.7V441.3z M754.8,6.5h82.7v16.8h-82.7V6.5z M1183.4,231
			h-48.7v-16.7h48.7V231z M1037.2,231h-70.9v210.4h70.9v16.7h-87.7V6.5h87.7v16.8h-70.9v191h70.9V231L1037.2,231z M1134.7,441.3
			h80.3v16.7h-80.3V441.3z M1134.7,6.5h80.3v16.8h-80.3V6.5z M1627,23.3h-94.8V6.5h94.8V23.3z M1468.9,75.6v382.4h-16.7V75.6H1468.9
			z M1392.2,23.3h-109.4V6.5h109.4V23.3z M1995.8,351.7c0-25.8-10.6-46.7-31.8-62.5c-12.6-9.4-30.5-19-53.7-28.7v-18.9
			c27.2,10.7,48.8,21.7,65,32.9c25,17.4,37.6,42.9,37.6,76.5c0,34.3-14.8,61.8-44.4,82.6c-17.1,11.9-36.5,20.4-58.2,25.4v-17.3
			c17.5-4.5,33-11.7,46.7-21.3C1982.9,402.1,1995.8,379.2,1995.8,351.7L1995.8,351.7z M1807.9,224c-27.3-10.6-48.9-21.5-64.7-32.9
			c-24-17.5-36.1-43.2-36.1-77.3c0-33.9,14.1-61.4,42.3-82.4c16.8-12.5,36.2-21.2,58.4-26.3v17.1c-18.6,4.7-34.6,12.4-48.1,23.1
			c-24,19.2-36,41.7-36,67.7c0,26,9.6,47.2,29,63.4c12,10.1,30.3,20,55,29.8V224z M1910.4,6.5c21.3,5.7,39.7,15.1,55.3,28.3
			c27.4,23.2,40.7,55.5,39.8,97.1l-0.6,1.8h-14.2c0-33.7-12.4-61.5-37.3-83.6c-12.5-11.1-26.8-19.5-43-25L1910.4,6.5L1910.4,6.5z
			 M1807.9,459.5c-24.2-5.1-46.1-14-65.7-26.7c-32.7-21.2-48.5-54.5-47.4-100l0.6-1.8h13.9c0,41,15.1,70.6,45.3,89.1
			c16.4,10.1,34.2,17.4,53.4,22L1807.9,459.5L1807.9,459.5z"/>
		<path class="st1" d="M211.2,431.4h1.9l99.2-223.6v40.8l-93.4,209.6h-13.3l-88.2-198v-40.8L211.2,431.4L211.2,431.4z M1910.4,459
			v-17.3c-15.6,4-32.6,6.1-51.2,6.1c-18.1,0-35.1-1.9-51.2-5.8v17.4c16.1,3.4,33.1,5.1,51.2,5.1
			C1877.4,464.6,1894.5,462.7,1910.4,459z M1910.4,260.5v-18.9c-14.8-5.9-31.3-11.6-49.4-17.3c-20.1-5.9-37.8-11.9-53-17.9V224
			c14.3,5.5,30.2,11,47.7,16.3C1876.3,247.1,1894.6,253.8,1910.4,260.5L1910.4,260.5z M1910.4,25V6.5c-16.2-4.3-34-6.5-53.5-6.5
			c-17.6,0-33.9,1.7-49,5.2v17.1c14.7-3.7,31-5.6,49-5.6C1876.5,16.7,1894.4,19.5,1910.4,25L1910.4,25z M1532.2,6.5v16.8h-63.3v52.3
			h-16.7V23.3h-59.9V6.5L1532.2,6.5L1532.2,6.5z M1134.7,458.1v-16.7h-97.5v16.7H1134.7z M1134.7,231v-16.7h-97.5V231H1134.7z
			 M1134.7,23.3V6.5h-97.5v16.8H1134.7z M754.8,458.1v-16.7h-97.5v16.7H754.8z M754.8,231v-16.7h-97.5V231H754.8z M754.8,23.3V6.5
			h-97.5v16.8H754.8z"/>
	</g>
</g>
</svg>
