<?xml version="1.0" encoding="utf-8"?>
<!-- Generator: Adobe Illustrator 19.2.0, SVG Export Plug-In . SVG Version: 6.00 Build 0)  -->
<svg version="1.1" id="Слой_1" xmlns="http://www.w3.org/2000/svg" xmlns:xlink="http://www.w3.org/1999/xlink" x="0px" y="0px"
	 viewBox="0 0 55.4 37" style="enable-background:new 0 0 55.4 37;" xml:space="preserve">
<style type="text/css">
	.st0{fill:none;stroke:#000000;stroke-width:1.2;stroke-linecap:round;stroke-miterlimit:22.93;}
	.st1{fill:none;stroke:#000000;stroke-width:1.2;stroke-linecap:round;stroke-linejoin:round;}
	.st2{stroke:#000000;stroke-width:0.75;stroke-linecap:round;stroke-linejoin:round;}
	.st3{fill:#FEFEFE;}
	.st4{fill:none;stroke:#000000;stroke-width:1.2;stroke-miterlimit:22.93;}
</style>
<title>ИКОНКИ-2</title>
<path class="st0" d="M47.4,14.2c4.3,1.3,6.6,2.9,6.6,4.5c0,1.6-2.4,3.3-6.7,4.6"/>
<path class="st1" d="M27.9,1.2c9.5,0,17.4,7.8,17.4,17.4s-7.8,17.3-17.4,17.3s-17.4-7.8-17.4-17.4S18.2,1.2,27.9,1.2z"/>
<path class="st2" d="M27.9,12.2c3.5,0,6.3,2.9,6.3,6.3s-2.9,6.3-6.3,6.3s-6.3-2.9-6.3-6.3l0,0C21.6,15.1,24.3,12.2,27.9,12.2z"/>
<path class="st3" d="M25.5,13.8c1.4,0,2.4,1.1,2.4,2.4s-1.1,2.4-2.4,2.4c-1.4,0-2.4-1.1-2.4-2.4l0,0C23,14.8,24.2,13.8,25.5,13.8z"
	/>
<path class="st0" d="M7.4,23.2c-4.3-1.3-6.6-2.9-6.6-4.5s2.3-3.3,6.6-4.5"/>
<path class="st4" d="M10.5,16.5C22.9,0.9,35.2,4.3,45,16.2 M10.5,20.5C23,36,35.2,32.8,45,20.9 M34.2,18.5L33.9,7.2 M21.6,17.4v12.1
	 M24.2,23.1l8.2,7.3 M23.5,6.8l9.9,8.3 M28.7,11.7l-14,3.7 M41,21.4l-11.8,3 M22.5,15.6l-7.1,7.8 M40.1,13.4l-6.9,7.8"/>
<path class="st1" d="M27.9,6c7.4,0,13.5,5.6,13.5,12.5S35.3,31,27.9,31s-13.5-5.6-13.5-12.5S20.4,6,27.9,6z"/>
</svg>
