<?xml version="1.0" encoding="utf-8"?>
<!-- Generator: Adobe Illustrator 19.2.0, SVG Export Plug-In . SVG Version: 6.00 Build 0)  -->
<svg version="1.1" id="Layer_1" xmlns="http://www.w3.org/2000/svg" xmlns:xlink="http://www.w3.org/1999/xlink" x="0px" y="0px"
	 viewBox="0 0 264.1 435" style="enable-background:new 0 0 264.1 435;" xml:space="preserve">
<style type="text/css">
	.st0{fill:#046B71;}
</style>
<path class="st0" d="M150.2,405c-46.3,0-83.9-37.7-83.9-83.9v-50.9h160v-30h-160v-40h160v-30h-160v-56.3c0-46.3,37.7-83.9,83.9-83.9
	c46.3,0,83.9,37.7,83.9,83.9h30C264.1,51.1,213,0,150.2,0C87.4,0,36.3,51.1,36.3,113.9v56.3h-35v30h35v40H0v30h36.3v50.9
	c0,62.8,51.1,113.9,113.9,113.9c62.8,0,113.9-51.1,113.9-113.9h-30C234.1,367.3,196.5,405,150.2,405z"/>
</svg>
