{"asset":{"version":"2.0","generator":"babylon.js glTF exporter for 3ds max 2015 v1.2.16","copyright":"2017 (c) BabylonJS"},"extensionsUsed":["KHR_lights"],"scene":0,"scenes":[{"nodes":[0],"extensions":{"KHR_lights":{"light":0}}}],"nodes":[{"mesh":0,"translation":[0.0,0.0,0.0],"rotation":[0.0,0.0,0.0,1.0],"scale":[1.0,1.0,1.0],"name":"trousers"}],"meshes":[{"primitives":[{"attributes":{"POSITION":1,"NORMAL":2,"TEXCOORD_0":3},"indices":0,"mode":4,"material":0}],"name":"trousers"}],"accessors":[{"bufferView":0,"componentType":5123,"count":61656,"type":"SCALAR","name":"accessorIndices"},{"bufferView":1,"componentType":5126,"count":61656,"max":[22.3047028,107.722717,11.7835655],"min":[-22.57727,4.147629,-16.2342472],"type":"VEC3","name":"accessorPositions"},{"bufferView":1,"byteOffset":739872,"componentType":5126,"count":61656,"type":"VEC3","name":"accessorNormals"},{"bufferView":2,"componentType":5126,"count":61656,"type":"VEC2","name":"accessorUVs"}],"bufferViews":[{"buffer":0,"byteLength":123312,"name":"bufferViewScalar"},{"buffer":0,"byteOffset":123312,"byteLength":1479744,"byteStride":12,"name":"bufferViewFloatVec3"},{"buffer":0,"byteOffset":1603056,"byteLength":493248,"byteStride":8,"name":"bufferViewFloatVec2"}],"buffers":[{"uri":"trousers.bin","byteLength":2096304}],"materials":[{"pbrMetallicRoughness":{"baseColorFactor":[0.6125001,0.6125001,0.6125001,1.0],"metallicFactor":0.0,"roughnessFactor":0.9},"emissiveFactor":[0.0,0.0,0.0],"alphaMode":"OPAQUE","name":"Material"}],"extensions":{"KHR_lights":{"lights":[{"color":[1.0,1.0,1.0],"intensity":1.0,"type":"ambient"}]}}}