{"asset":{"version":"2.0","generator":"babylon.js glTF exporter for 3ds max 2015 v1.2.16","copyright":"2017 (c) BabylonJS"},"extensionsUsed":["KHR_lights"],"scene":0,"scenes":[{"nodes":[0,1],"extensions":{"KHR_lights":{"light":0}}}],"nodes":[{"mesh":0,"translation":[0.0,0.0,0.0],"rotation":[0.0,0.0,0.0,1.0],"scale":[1.0,1.0,1.0],"name":"base"},{"mesh":1,"translation":[0.17203702,151.488281,3.227154],"rotation":[0.2675118,-0.0197004322,0.7008495,0.660953343],"scale":[1.01195455,1.01195455,1.01195467],"name":"button"}],"meshes":[{"primitives":[{"attributes":{"POSITION":1,"TANGENT":2,"NORMAL":3,"TEXCOORD_0":4,"TEXCOORD_1":5},"indices":0,"mode":4,"material":0}],"name":"base"},{"primitives":[{"attributes":{"POSITION":7,"TANGENT":8,"NORMAL":9,"TEXCOORD_0":10},"indices":6,"mode":4,"material":0}],"name":"button"}],"accessors":[{"bufferView":0,"componentType":5123,"count":7056,"type":"SCALAR","name":"accessorIndices"},{"bufferView":1,"componentType":5126,"count":7056,"max":[7.41875839,160.422318,4.73733044],"min":[-7.37773466,148.40715,-9.760734],"type":"VEC3","name":"accessorPositions"},{"bufferView":2,"componentType":5126,"count":7056,"type":"VEC4","name":"accessorTangents"},{"bufferView":1,"byteOffset":84672,"componentType":5126,"count":7056,"type":"VEC3","name":"accessorNormals"},{"bufferView":3,"componentType":5126,"count":7056,"type":"VEC2","name":"accessorUVs"},{"bufferView":3,"byteOffset":56448,"componentType":5126,"count":7056,"type":"VEC2","name":"accessorUV2s"},{"bufferView":0,"byteOffset":14112,"componentType":5123,"count":4470,"type":"SCALAR","name":"accessorIndices"},{"bufferView":1,"byteOffset":169344,"componentType":5126,"count":4470,"max":[0.5533142,0.6199455,0.240646362],"min":[-0.4322052,-0.5775223,-0.245582581],"type":"VEC3","name":"accessorPositions"},{"bufferView":2,"byteOffset":112896,"componentType":5126,"count":4470,"type":"VEC4","name":"accessorTangents"},{"bufferView":1,"byteOffset":222984,"componentType":5126,"count":4470,"type":"VEC3","name":"accessorNormals"},{"bufferView":3,"byteOffset":112896,"componentType":5126,"count":4470,"type":"VEC2","name":"accessorUVs"}],"bufferViews":[{"buffer":0,"byteLength":23052,"name":"bufferViewScalar"},{"buffer":0,"byteOffset":23052,"byteLength":276624,"byteStride":12,"name":"bufferViewFloatVec3"},{"buffer":0,"byteOffset":299676,"byteLength":184416,"byteStride":16,"name":"bufferViewFloatVec4"},{"buffer":0,"byteOffset":484092,"byteLength":148656,"byteStride":8,"name":"bufferViewFloatVec2"}],"buffers":[{"uri":"clr1.bin","byteLength":632748}],"materials":[{"pbrMetallicRoughness":{"baseColorFactor":[0.6125001,0.6125001,0.6125001,1.0],"metallicFactor":0.0,"roughnessFactor":0.9},"emissiveFactor":[0.0,0.0,0.0],"alphaMode":"OPAQUE","name":"_f002wire_868686"}],"extensions":{"KHR_lights":{"lights":[{"color":[1.0,1.0,1.0],"intensity":1.0,"type":"ambient"}]}}}