{"asset":{"version":"2.0","generator":"babylon.js glTF exporter for 3ds max 2015 v1.2.16","copyright":"2017 (c) BabylonJS"},"extensionsUsed":["KHR_lights"],"scene":0,"scenes":[{"nodes":[0,1],"extensions":{"KHR_lights":{"light":0}}}],"nodes":[{"mesh":0,"translation":[2.77757645E-05,144.068665,6.17732859],"rotation":[0.3454599,-0.616974533,-0.345459849,0.6169744],"scale":[0.99999994,0.99999994,1.0],"name":" buttom"},{"mesh":1,"translation":[0.0,0.0,-3.81469727E-06],"rotation":[0.0,0.0,0.0,1.0],"scale":[1.0,1.0,1.0],"name":"base"}],"meshes":[{"primitives":[{"attributes":{"POSITION":1,"TANGENT":2,"NORMAL":3,"TEXCOORD_0":4},"indices":0,"mode":4,"material":0}],"name":" buttom"},{"primitives":[{"attributes":{"POSITION":6,"TANGENT":7,"NORMAL":8,"TEXCOORD_0":9,"TEXCOORD_1":10},"indices":5,"mode":4,"material":0}],"name":"base"}],"accessors":[{"bufferView":0,"componentType":5123,"count":10740,"type":"SCALAR","name":"accessorIndices"},{"bufferView":1,"componentType":5126,"count":10740,"max":[33.1031342,0.8183594,0.395453334],"min":[-0.51651,-13.3226624,-0.395426154],"type":"VEC3","name":"accessorPositions"},{"bufferView":2,"componentType":5126,"count":10740,"type":"VEC4","name":"accessorTangents"},{"bufferView":1,"byteOffset":128880,"componentType":5126,"count":10740,"type":"VEC3","name":"accessorNormals"},{"bufferView":3,"componentType":5126,"count":10740,"type":"VEC2","name":"accessorUVs"},{"bufferView":0,"byteOffset":21480,"componentType":5123,"count":30894,"type":"SCALAR","name":"accessorIndices"},{"bufferView":1,"byteOffset":257760,"componentType":5126,"count":30894,"max":[20.8246117,154.646332,12.348752],"min":[-20.8607788,105.284286,-6.86675167],"type":"VEC3","name":"accessorPositions"},{"bufferView":2,"byteOffset":171840,"componentType":5126,"count":30894,"type":"VEC4","name":"accessorTangents"},{"bufferView":1,"byteOffset":628488,"componentType":5126,"count":30894,"type":"VEC3","name":"accessorNormals"},{"bufferView":3,"byteOffset":85920,"componentType":5126,"count":30894,"type":"VEC2","name":"accessorUVs"},{"bufferView":3,"byteOffset":333072,"componentType":5126,"count":30894,"type":"VEC2","name":"accessorUV2s"}],"bufferViews":[{"buffer":0,"byteLength":83268,"name":"bufferViewScalar"},{"buffer":0,"byteOffset":83268,"byteLength":999216,"byteStride":12,"name":"bufferViewFloatVec3"},{"buffer":0,"byteOffset":1082484,"byteLength":666144,"byteStride":16,"name":"bufferViewFloatVec4"},{"buffer":0,"byteOffset":1748628,"byteLength":580224,"byteStride":8,"name":"bufferViewFloatVec2"}],"buffers":[{"uri":"frt10.bin","byteLength":2328852}],"materials":[{"pbrMetallicRoughness":{"baseColorFactor":[0.6125001,0.6125001,0.6125001,1.0],"metallicFactor":0.0,"roughnessFactor":0.9},"emissiveFactor":[0.0,0.0,0.0],"alphaMode":"OPAQUE","name":"material"}],"extensions":{"KHR_lights":{"lights":[{"color":[1.0,1.0,1.0],"intensity":1.0,"type":"ambient"}]}}}